<?xml version="1.0" encoding="utf-8"?>
<!-- Generator: Adobe Illustrator 19.2.0, SVG Export Plug-In . SVG Version: 6.00 Build 0)  -->
<svg version="1.1" id="Слой_1" xmlns="http://www.w3.org/2000/svg" xmlns:xlink="http://www.w3.org/1999/xlink" x="0px" y="0px"
	 viewBox="0 0 287 55" style="enable-background:new 0 0 287 55;" xml:space="preserve">
<style type="text/css">
	.st0{fill:#062436;}
	.st1{fill-rule:evenodd;clip-rule:evenodd;fill:#23A4DE;}
	.st2{fill:#FFFFFF;}
</style>
<g>
	<path class="st0" d="M96.6,41h-5.2L86,23.7L79.8,41h-5.4l-4-27h6.3l2.4,18.2L85.5,14h4l5.4,18.1L98,14h4.6L96.6,41z M105.4,41V14
		h14.4v3.7h-8.1V25h6.5v3.5h-6.5v8.8h8.4V41H105.4z M130.7,41.4c-2.8,0-6.6-0.5-7.7-0.7V14.4c0,0,4.6-0.6,8.6-0.6
		c7.6,0,9.8,3.5,9.8,7c0,2.1-0.5,4.5-5,6.1v0.3c4.2,1,5.6,3.5,5.6,6C142,37.6,139.2,41.4,130.7,41.4z M131.3,17.5
		c-1.2,0-1.6,0.1-2,0.2v8.1h1.7c3.3,0,4-2.1,4-4.5C135.1,18.8,133.5,17.5,131.3,17.5z M131,28.9h-1.7v8.6c0.4,0.1,1.2,0.2,2.3,0.2
		c1.9,0,3.8-1.5,3.8-4.5C135.5,30.5,134.1,28.9,131,28.9z M158.3,41l-1.9-7.2h-6.3L148,41h-4.7l8.8-27h4.9l8.3,27H158.3z
		 M153.2,22.2l-2.2,8.3h4.6L153.2,22.2z M168,41V14h6.3v23.3h8.1V41H168z M192.9,17.7V41h-6.3V17.7h-6.5V14h19.3v3.7H192.9z
		 M212.7,41l-1.9-7.2h-6.3l-2.1,7.2h-4.7l8.8-27h4.9l8.3,27H212.7z M207.7,22.2l-2.2,8.3h4.6L207.7,22.2z M230.4,31.6V41h-6.3v-9.4
		l-7-17.6h7.1l4.5,12.6L233,14h5L230.4,31.6z M239.6,41.6c-1.7,0-2.9-1.2-2.9-3c0-1.7,1.2-3,2.9-3c1.5,0,2.9,1.2,2.9,3
		C242.5,40.5,241.2,41.6,239.6,41.6z M259,41l-3.1-8.1c-0.7-1.8-1.3-3-2.9-3h-0.4V41h-6.3V14.4c0,0,4.3-0.6,8.2-0.6
		c7.6,0,10,3.7,10,7.8c0,4-3.1,6.4-5.5,7c1.1,0.6,1.8,1.7,3,4.4l3.7,8.1H259z M254.3,17.4c-1,0-1.1,0.1-1.6,0.2v9.2h1.2
		c3,0,4.7-2.4,4.7-5C258.6,19.8,258.1,17.4,254.3,17.4z M277.3,41.6c-6.2,0-9.2-3.1-9.2-8.7V14h6.3v18.3c0,2.1,0.7,5,4.1,5
		c2.9,0,4.3-1.9,4.3-5V14h4.2v18.5C287,38.7,282.8,41.6,277.3,41.6z"/>
	<g>
		<circle class="st1" cx="27.5" cy="27.5" r="27.5"/>
		<path class="st2" d="M45.3,36l-8-17h-1.1l-7,16.7l-0.3-1l-0.3-0.8l-5-14.9h-1.1l-5.1,15l-0.1,1h-0.1l-0.1-1l-4.9-14H14v-1H0v1h9.9
			L16,37h1.5l4.8-13.5l0.1-0.5h0.2l0.1,0.5L27.4,37h1.2H29h0.8l0.4-0.7L32,32h8.7l2.1,4H40v1h14v-1H45.3z M32.4,31l3.6-8.9l0.1-1.1
			h0.2l0.1,1.1l3.8,8.9H32.4z"/>
	</g>
</g>
</svg>
