<?xml version="1.0" standalone="no"?>
<!DOCTYPE svg PUBLIC "-//W3C//DTD SVG 1.1//EN" "http://www.w3.org/Graphics/SVG/1.1/DTD/svg11.dtd" >
<svg xmlns="http://www.w3.org/2000/svg" xmlns:xlink="http://www.w3.org/1999/xlink" version="1.1">
<metadata>
Created by FontForge 20161116 at Fri Mar  6 02:28:39 2009
 By Jimmy Wärting
Copyright (c) 2009 by Vasiliy Shishkin. All rights reserved.
</metadata>
<defs>
<font id="Orpheus" horiz-adv-x="658" >
  <font-face 
    font-family="Orpheus"
    font-weight="400"
    font-stretch="normal"
    units-per-em="1000"
    panose-1="2 0 5 3 2 0 0 2 0 4"
    ascent="800"
    descent="-200"
    x-height="523"
    cap-height="703"
    bbox="-5 -213 1040.82 869"
    underline-thickness="50"
    underline-position="-100"
    stemh="110"
    stemv="153"
    unicode-range="U+0020-2116"
  />
<missing-glyph horiz-adv-x="300" 
 />
    <glyph glyph-name=".notdef" horiz-adv-x="300" 
 />
    <glyph glyph-name="asciitilde" unicode="~" horiz-adv-x="626" 
d="M20 285c89 145 205 155 336 87c69 -35 129 -59 190 19l60 -47c-71 -137 -193 -146 -305 -85c-85 46 -143 62 -220 -21z" />
    <glyph glyph-name="ellipsis" unicode="&#x2026;" horiz-adv-x="725" 
d="M496 84c0 69 36 89 95 89c58 0 94 -20 94 -89s-37 -89 -94 -89c-58 0 -95 20 -95 89zM268 84c0 69 36 89 94 89c59 0 95 -20 95 -89s-37 -89 -95 -89c-57 0 -94 20 -94 89zM40 84c0 69 36 89 94 89c59 0 94 -20 94 -89s-37 -89 -94 -89s-94 20 -94 89z" />
    <glyph glyph-name="Euro" unicode="&#x20ac;" horiz-adv-x="674" 
d="M97 349v24h-63l19 73h50c24 178 121 269 305 269c90 0 166 -29 224 -89c6 -67 6 -100 2 -173c-44 -6 -82 -6 -127 0c-7 112 -41 154 -107 154c-79 0 -110 -81 -122 -161h168l-20 -73h-153c-1 -9 -1 -17 -1 -24c0 -10 0 -20 1 -32h139l-20 -73h-112
c12 -76 43 -147 120 -147c67 0 91 67 93 162c53 6 101 6 161 0c-1 -174 -106 -271 -259 -271c-164 0 -263 85 -291 256h-104l19 73h78v32z" />
    <glyph glyph-name="bullet" unicode="&#x2022;" horiz-adv-x="388" 
d="M194 467c79 0 144 -65 144 -144c0 -80 -65 -144 -144 -144c-80 0 -144 64 -144 144c0 79 64 144 144 144z" />
    <glyph glyph-name="endash" unicode="&#x2013;" horiz-adv-x="554" 
d="M524 285h-494v105h494v-105z" />
    <glyph glyph-name="emdash" unicode="&#x2014;" horiz-adv-x="699" 
d="M669 242h-639v94h639v-94z" />
    <glyph glyph-name="section" unicode="&#xa7;" horiz-adv-x="485" 
d="M188 426c-13 -18 -23 -39 -22 -60c2 -62 87 -77 132 -93c13 18 23 38 22 60c-2 61 -87 77 -132 93zM387 227c46 -30 55 -82 41 -132c-22 -76 -108 -108 -180 -106c-73 2 -150 33 -198 79c13 30 33 58 53 78c33 -31 93 -69 149 -70c42 -1 65 11 71 32c11 43 -63 59 -90 68
c-84 27 -172 68 -176 175c-1 41 17 84 42 121c-31 30 -49 53 -48 100c2 97 95 140 189 138c74 -2 120 -28 176 -73c-14 -31 -31 -52 -51 -72c-42 33 -73 57 -128 58c-46 1 -74 -14 -74 -43c1 -38 64 -49 90 -57c84 -27 172 -68 176 -175c1 -42 -17 -85 -42 -121z" />
    <glyph glyph-name="afii10023" unicode="&#x401;" horiz-adv-x="596" 
d="M147 800c0 54 28 69 74 69c45 0 73 -15 73 -69s-29 -69 -73 -69c-45 0 -74 15 -74 69zM324 800c0 54 28 69 74 69c45 0 73 -15 73 -69s-29 -69 -73 -69c-45 0 -74 15 -74 69zM114 80v543c-21 1 -48 3 -69 6v69c49 6 100 5 150 5h236c39 0 70 -2 110 -8
c6 -71 6 -138 -3 -209h-73c-14 28 -29 67 -35 107h-156v-188h72c4 27 13 51 22 68h60c10 -75 10 -151 1 -226h-60c-11 18 -16 36 -23 63h-72v-200h156c6 40 21 79 35 107h73c9 -71 9 -139 3 -209c-40 -6 -71 -8 -110 -8h-236c-50 0 -101 -1 -150 5v69c21 3 48 5 69 6z" />
    <glyph glyph-name="copyright" unicode="&#xa9;" horiz-adv-x="781" 
d="M390 711c199 0 361 -161 361 -360s-162 -360 -361 -360s-360 161 -360 360s161 360 360 360zM390 643c-161 0 -292 -131 -292 -292s131 -292 292 -292s292 131 292 292s-131 292 -292 292zM226 349c0 134 57 203 175 203c50 0 98 -16 130 -49c3 -38 3 -56 1 -96
c-25 -3 -45 -3 -70 0c-4 62 -32 81 -69 82c-62 1 -77 -80 -77 -140c0 -58 14 -138 77 -136c37 1 60 35 61 87c29 3 56 3 89 0c2 -96 -56 -150 -149 -150c-107 0 -168 66 -168 199z" />
    <glyph glyph-name="afii10053" unicode="&#x404;" horiz-adv-x="608" 
d="M30 349c0 242 93 366 307 366c91 0 170 -29 228 -89c7 -67 7 -100 3 -173c-45 -6 -83 -6 -128 0c-7 113 -44 153 -111 154c-91 1 -120 -104 -121 -198h166v-110h-167c-1 -102 31 -205 127 -202c66 2 98 67 100 162c53 6 94 6 154 0c-1 -189 -107 -271 -260 -271
c-194 0 -298 119 -298 361z" />
    <glyph glyph-name="guillemotleft" unicode="&#xab;" horiz-adv-x="469" 
d="M261 492l-88 -199l88 -200c-24 -17 -60 -29 -90 -36l-151 236l151 235c30 -6 66 -19 90 -36zM363 293l66 -177c-21 -15 -52 -29 -79 -35l-130 212l130 211c27 -6 57 -19 78 -34z" />
    <glyph glyph-name="registered" unicode="&#xae;" horiz-adv-x="781" 
d="M391 711c199 0 360 -161 360 -360s-161 -360 -360 -360s-361 161 -361 360s162 360 361 360zM391 643c-162 0 -292 -131 -292 -292s130 -292 292 -292c161 0 292 131 292 292s-131 292 -292 292zM464 437c0 35 -24 49 -52 49h-52v-97h48c27 0 56 12 56 48zM360 329v-125
c12 0 27 -2 38 -3v-38c-54 -6 -109 -6 -163 0v38c12 1 26 3 38 3v297c-12 0 -26 2 -38 3v38c27 3 53 3 80 3h118c75 0 124 -41 124 -109c0 -41 -31 -80 -80 -93l79 -140c11 -1 21 -2 33 -3v-38c-54 -6 -108 -6 -162 0v38c12 1 15 2 27 3l-59 126h-35z" />
    <glyph glyph-name="afii10056" unicode="&#x407;" horiz-adv-x="394" 
d="M118 623c-22 1 -49 3 -70 6v69c99 12 200 12 298 0v-69c-21 -3 -47 -5 -69 -6v-543c22 -1 48 -3 69 -5v-70c-98 -12 -199 -12 -298 0v70c21 2 48 4 70 5v543zM35 800c0 54 28 69 74 69c45 0 73 -15 73 -69s-29 -69 -73 -69c-45 0 -74 15 -74 69zM212 800
c0 54 28 69 74 69c45 0 73 -15 73 -69s-29 -69 -73 -69c-45 0 -74 15 -74 69z" />
    <glyph glyph-name="paragraph" unicode="&#xb6;" horiz-adv-x="502" 
d="M482 621h-62v-767h-92v767h-74v-767h-92v633h-23c-157 0 -160 216 0 216h343v-82zM162 621h-22c-37 0 -39 -62 0 -62h22v62z" />
    <glyph glyph-name="afii10071" unicode="&#x451;" horiz-adv-x="559" 
d="M528 244c-27 -6 -69 -9 -98 -9h-245c-1 -73 26 -146 98 -148c49 -1 78 37 89 76c47 8 95 7 144 0c-13 -80 -78 -173 -225 -173c-177 0 -261 96 -261 279c0 167 84 272 247 272c182 0 259 -125 251 -297zM187 319h188c-4 67 -20 122 -98 122c-70 0 -89 -67 -90 -122z
M297 644c0 57 29 73 76 73c48 0 77 -16 77 -73c0 -56 -30 -72 -77 -72c-46 0 -76 16 -76 72zM108 644c0 57 29 73 77 73c47 0 77 -16 77 -73c0 -56 -31 -72 -77 -72c-47 0 -77 16 -77 72z" />
    <glyph glyph-name="afii61352" unicode="&#x2116;" horiz-adv-x="1023" 
d="M231 454v-374c22 -2 48 -4 70 -6v-70c-99 -12 -157 -12 -256 0v70c22 2 48 4 70 6v542c-22 1 -48 3 -70 6v69c73 9 164 13 234 0l188 -402c11 -23 16 -35 21 -55h2v383c-22 1 -48 3 -69 6v69c98 12 157 12 256 0v-69c-22 -3 -48 -5 -70 -6v-618c-69 -10 -99 -10 -167 0
l-186 397c-9 17 -16 35 -21 52h-2zM836 708c96 0 157 -66 157 -166c0 -94 -57 -165 -157 -165c-107 0 -157 68 -157 165s48 166 157 166zM985 341v-78h-306v78h306zM893 542c0 34 -3 93 -57 93s-56 -60 -57 -93c0 -33 3 -92 57 -92s57 59 57 92z" />
    <glyph glyph-name="afii10101" unicode="&#x454;" horiz-adv-x="532" 
d="M326 223h-138c5 -64 26 -137 95 -136c50 2 74 50 75 112c45 4 98 4 143 0c3 -130 -88 -209 -220 -209c-169 0 -251 95 -251 276c0 180 89 275 258 275c68 0 153 -24 196 -69c5 -46 5 -87 2 -137c-36 -2 -72 -2 -109 0c-6 77 -49 108 -96 109c-64 1 -85 -62 -92 -122h137
v-99z" />
    <glyph glyph-name="guillemotright" unicode="&#xbb;" horiz-adv-x="470" 
d="M209 93l87 200l-87 199c23 17 60 30 90 36l151 -235l-151 -236c-30 7 -67 19 -90 36zM107 293l-67 177c22 15 53 28 79 34l131 -211l-131 -212c-26 6 -56 19 -78 34z" />
    <glyph glyph-name="afii10104" unicode="&#x457;" horiz-adv-x="337" 
d="M42 517c69 16 141 19 214 17v-458c21 -2 42 -4 62 -6v-66c-91 -11 -182 -11 -276 0v66c20 2 41 4 61 6v368c-23 2 -38 4 -61 7v66zM184 644c0 57 29 73 76 73c48 0 77 -16 77 -73c0 -56 -30 -72 -77 -72c-46 0 -76 16 -76 72zM-5 644c0 57 29 73 77 73
c47 0 77 -16 77 -73c0 -56 -31 -72 -77 -72c-47 0 -77 16 -77 72z" />
    <glyph glyph-name="braceright" unicode="}" horiz-adv-x="303" 
d="M10 -149v90h52c35 0 51 20 51 62v179c0 47 21 82 53 95c-32 13 -53 48 -53 95v179c0 42 -16 62 -51 62h-52v90h82c93 0 125 -49 125 -140v-202c0 -34 24 -43 53 -43c3 -27 3 -55 0 -82c-29 0 -53 -9 -53 -43v-202c0 -91 -32 -140 -125 -140h-82z" />
    <glyph glyph-name="space" unicode=" " horiz-adv-x="300" 
 />
    <glyph glyph-name="exclam" unicode="!" horiz-adv-x="309" 
d="M88 252l-27 451c62 9 125 9 187 0l-27 -451c-44 -3 -88 -3 -133 0zM60 84c0 69 36 89 95 89c58 0 94 -20 94 -89s-37 -89 -94 -89c-58 0 -95 20 -95 89z" />
    <glyph glyph-name="quotedbl" unicode="&#x22;" horiz-adv-x="411" 
d="M30 510l64 218c36 -3 99 -20 129 -35l-93 -209c-23 1 -79 15 -100 26zM187 510l65 218c36 -3 99 -20 129 -35l-93 -209c-23 1 -79 15 -101 26z" />
    <glyph glyph-name="numbersign" unicode="#" horiz-adv-x="676" 
d="M131 0l24 196h-105l12 98h105l17 136h-105l12 98h105l22 175h97l-21 -175h125l22 175h97l-21 -175h109l-12 -98h-109l-17 -136h109l-12 -98h-109l-24 -196h-98l24 196h-125l-24 -196h-98zM265 294h125l17 136h-125z" />
    <glyph glyph-name="dollar" unicode="$" horiz-adv-x="541" 
d="M356 176c3 35 -20 59 -46 77v-140c24 11 43 31 46 63zM240 103v192c-45 25 -94 52 -137 86c-54 42 -81 89 -77 161c8 119 110 161 214 169v52h70v-51c65 -5 123 -20 149 -28c5 -63 7 -124 0 -184h-67c-6 44 -32 83 -82 96v-167c24 -13 47 -26 70 -40
c74 -48 140 -108 135 -198c-6 -115 -85 -185 -205 -198v-49h-70v47c-83 5 -146 31 -190 61c-3 58 -3 104 2 156h66c28 -60 61 -100 122 -105zM240 470v127c-33 -5 -65 -20 -63 -60c0 -26 26 -45 50 -60c4 -2 9 -5 13 -7z" />
    <glyph glyph-name="percent" horiz-adv-x="668" 
d="M73 18l466 706l56 -39l-466 -706zM546 141c1 31 -2 83 -51 83c-48 0 -51 -53 -51 -83s3 -84 51 -84c49 0 51 53 51 84zM638 140c0 -87 -46 -148 -143 -148s-142 61 -142 148c0 88 43 150 142 150s142 -62 143 -150zM224 562c0 31 -3 84 -51 84c-49 0 -51 -54 -52 -84
c0 -30 3 -83 52 -83c48 0 51 53 51 83zM315 562c0 -88 -45 -149 -142 -149s-143 62 -143 149s44 150 143 150s142 -62 142 -150z" />
    <glyph glyph-name="ampersand" unicode="&#x26;" horiz-adv-x="638" 
d="M275 617c-52 0 -70 -43 -70 -75c0 -36 21 -65 41 -94c43 25 87 53 88 103c1 30 -19 66 -59 66zM315 356c41 -51 90 -105 139 -155c21 27 38 56 48 81c30 -11 57 -24 83 -40c-12 -32 -33 -71 -60 -109c33 -31 65 -59 93 -82c-19 -25 -46 -45 -80 -60c-27 20 -56 44 -85 70
c-50 -40 -110 -70 -172 -70c-178 1 -256 97 -250 214c5 86 61 143 125 188c-32 45 -59 97 -59 154c0 94 61 171 179 171c126 1 196 -71 196 -162c0 -98 -69 -145 -157 -200zM379 131c-52 52 -104 110 -151 168c-28 -23 -50 -51 -50 -94c0 -86 69 -104 126 -100
c27 1 52 11 75 26z" />
    <glyph glyph-name="quotesingle" unicode="'" horiz-adv-x="253" 
d="M30 510l65 218c35 -3 98 -20 128 -35l-93 -209c-23 1 -79 15 -100 26z" />
    <glyph glyph-name="parenleft" unicode="(" horiz-adv-x="274" 
d="M172 269c0 -176 40 -310 92 -416c-16 -12 -47 -29 -66 -35c-72 73 -168 237 -168 451c0 215 96 378 168 452c19 -7 50 -23 66 -35c-52 -106 -92 -240 -92 -417z" />
    <glyph glyph-name="parenright" unicode=")" horiz-adv-x="275" 
d="M102 269c0 177 -40 311 -92 417c16 12 47 28 66 35c72 -74 169 -237 169 -452c0 -214 -97 -378 -169 -451c-19 6 -50 23 -66 35c52 106 92 240 92 416z" />
    <glyph glyph-name="asterisk" unicode="*" horiz-adv-x="453" 
d="M226 703h1c18 0 34 -2 50 -6l-18 -151l135 63c18 -28 28 -61 29 -97l-144 -28l97 -104c-21 -26 -49 -46 -81 -58l-69 124l-68 -124c-32 12 -60 32 -82 58l98 104l-144 28c1 36 11 69 29 97l135 -63l-19 151c16 4 33 6 51 6z" />
    <glyph glyph-name="plus" unicode="+" horiz-adv-x="554" 
d="M330 586v-196h194v-105h-194v-196h-106v196h-194v105h194v196h106z" />
    <glyph glyph-name="comma" unicode="," horiz-adv-x="268" 
d="M40 84c0 69 36 89 94 89s94 -20 94 -89s-36 -165 -118 -225c-18 -2 -56 8 -68 40c31 32 44 60 48 78c5 21 -5 28 -17 35c-21 10 -33 34 -33 72z" />
    <glyph glyph-name="hyphen" unicode="-" horiz-adv-x="349" 
d="M315 214h-282c-4 39 -4 79 0 121h282c4 -40 5 -81 0 -121z" />
    <glyph glyph-name="period" unicode="." horiz-adv-x="269" 
d="M40 84c0 69 36 89 94 89c59 0 95 -20 95 -89s-37 -89 -95 -89c-57 0 -94 20 -94 89z" />
    <glyph glyph-name="slash" unicode="/" horiz-adv-x="401" 
d="M0 -155l295 874c33 -4 73 -11 106 -26l-294 -874c-37 2 -73 6 -107 26z" />
    <glyph glyph-name="zero" unicode="0" horiz-adv-x="646" 
d="M616 350c0 -211 -122 -358 -291 -358s-295 148 -294 359c0 210 107 360 294 360c186 0 291 -149 291 -361zM448 352c0 92 -10 250 -123 250s-126 -161 -126 -251c-1 -90 16 -250 126 -250s123 159 123 251z" />
    <glyph glyph-name="one" unicode="1" horiz-adv-x="442" 
d="M159 555c-9 -10 -18 -18 -30 -25l-61 -38c-19 20 -35 43 -48 67l158 144c43 5 87 5 131 0v-610c39 -2 77 -5 113 -9v-78c-125 -14 -257 -14 -382 0v78c39 5 80 8 121 9v462h-2z" />
    <glyph glyph-name="two" unicode="2" horiz-adv-x="533" 
d="M167 139h213c8 32 18 57 31 83h69c8 -70 8 -143 2 -214c-39 -6 -70 -8 -108 -8h-343c-6 167 38 244 178 343c60 42 123 85 125 169c1 56 -33 100 -90 100c-51 0 -99 -22 -97 -132c-40 -4 -70 -5 -112 0c-3 68 -5 96 1 159c54 55 128 85 212 85c179 0 244 -84 244 -204
c1 -127 -121 -204 -213 -262c-51 -32 -102 -72 -112 -119z" />
    <glyph glyph-name="three" unicode="3" horiz-adv-x="544" 
d="M356 231c1 70 -41 103 -93 106c-20 1 -48 -3 -67 -10c-18 19 -33 41 -43 68l163 198h-156c-6 -28 -18 -62 -35 -89h-72c-9 70 -9 121 -3 192c39 5 70 7 109 7h225c28 0 63 -2 85 -7v-103l-160 -171c129 6 207 -79 204 -204c-4 -126 -78 -221 -254 -221
c-83 0 -153 30 -207 85c-7 56 -8 93 -5 151c39 5 71 4 112 0c5 -72 29 -132 109 -130c70 3 88 69 88 128z" />
    <glyph glyph-name="four" unicode="4" horiz-adv-x="560" 
d="M437 80c21 -1 48 -3 69 -5v-70c-98 -12 -193 -12 -291 0v70c21 2 48 4 69 5v111h-264v100l265 412h152v-412h90c4 -33 4 -66 0 -100h-90v-111zM123 291h161v250z" />
    <glyph glyph-name="five" unicode="5" horiz-adv-x="538" 
d="M161 703h225c29 0 59 -1 88 -7c2 -56 0 -118 -6 -168h-73c-8 14 -16 40 -23 65h-181v-142c33 13 78 15 105 14c131 -4 215 -80 211 -234c-3 -126 -81 -234 -256 -234c-84 0 -146 30 -200 85c-6 52 -7 96 -4 151c37 4 70 4 112 0c7 -94 39 -129 100 -130
c75 -1 91 79 91 140c1 71 -35 116 -86 119c-25 1 -72 -7 -97 -29c-44 -4 -67 -2 -114 4v359c36 5 72 7 108 7z" />
    <glyph glyph-name="six" unicode="6" horiz-adv-x="565" 
d="M183 415l3 -1c33 31 80 44 127 44c142 0 221 -92 221 -235c1 -138 -93 -234 -249 -234c-210 0 -255 184 -255 360c0 174 65 368 273 365c80 -1 150 -22 196 -70c5 -33 4 -87 0 -119c-27 -5 -65 -3 -99 0c-16 53 -45 80 -105 80c-63 0 -110 -55 -112 -190zM384 224
c0 51 -11 138 -99 138c-89 0 -99 -76 -95 -136c3 -50 23 -135 99 -135c79 0 95 82 95 133z" />
    <glyph glyph-name="seven" unicode="7" horiz-adv-x="472" 
d="M332 593h-200c-5 -36 -16 -87 -30 -123h-72c-9 71 -13 155 -7 226c39 5 70 7 108 7h235c28 0 59 -1 86 -7v-103c-91 -161 -164 -276 -182 -591c-59 -9 -108 -8 -167 0c32 311 129 443 229 591z" />
    <glyph glyph-name="eight" unicode="8" horiz-adv-x="579" 
d="M549 214c0 -132 -84 -228 -259 -228c-176 0 -260 97 -260 228c0 79 43 148 109 181c-39 27 -70 80 -70 134c0 111 69 188 221 188c151 0 220 -77 220 -187c0 -55 -27 -102 -69 -135c66 -35 108 -102 108 -181zM389 210c0 45 -14 122 -99 122c-86 0 -99 -79 -99 -123
c-1 -44 15 -122 99 -122s99 78 99 123zM366 531c0 34 -14 88 -76 88c-63 0 -77 -54 -77 -87c0 -34 16 -93 77 -93c60 0 76 58 76 92z" />
    <glyph glyph-name="nine" unicode="9" horiz-adv-x="556" 
d="M370 284l-2 1c-33 -31 -81 -42 -129 -42c-154 1 -209 111 -209 237c0 138 89 234 239 234c206 0 257 -161 257 -334c0 -242 -91 -390 -262 -391c-83 0 -148 19 -210 73c-5 33 -4 93 0 125c28 5 72 3 97 0c21 -70 62 -92 110 -92c95 0 113 122 109 189zM180 479
c0 -50 0 -132 89 -132c80 0 92 68 92 118c0 63 -10 145 -92 145c-80 0 -89 -80 -89 -131z" />
    <glyph glyph-name="colon" unicode=":" horiz-adv-x="269" 
d="M40 84c0 69 36 89 95 89c58 0 94 -20 94 -89s-37 -89 -94 -89c-58 0 -95 20 -95 89zM40 445c0 69 36 89 95 89c58 0 94 -20 94 -89s-37 -88 -94 -88c-58 0 -95 19 -95 88z" />
    <glyph glyph-name="semicolon" unicode=";" horiz-adv-x="271" 
d="M42 84c0 69 36 89 94 89c59 0 95 -20 95 -89s-36 -165 -119 -225c-17 -2 -55 8 -68 40c31 32 45 60 49 78c4 21 -6 28 -18 35c-20 10 -33 34 -33 72zM40 446c0 69 36 89 95 89c58 0 94 -20 94 -89s-37 -89 -94 -89c-58 0 -95 20 -95 89z" />
    <glyph glyph-name="less" unicode="&#x3c;" horiz-adv-x="488" 
d="M464 516l-341 -178l341 -177c4 -37 5 -71 0 -103l-440 229c-4 34 -5 68 0 102l440 229c5 -32 4 -66 0 -102z" />
    <glyph glyph-name="equal" unicode="=" horiz-adv-x="554" 
d="M524 227h-494v105h494v-105zM524 423h-494v105h494v-105z" />
    <glyph glyph-name="greater" unicode="&#x3e;" horiz-adv-x="487" 
d="M24 516c-4 36 -5 70 0 102l439 -229c5 -34 5 -68 0 -102l-439 -229c-5 32 -4 66 0 103l341 177z" />
    <glyph glyph-name="question" unicode="?" horiz-adv-x="530" 
d="M157 84c0 69 36 89 94 89s94 -20 94 -89s-37 -89 -94 -89s-94 20 -94 89zM247 612c-62 -1 -99 -35 -98 -129c-56 -6 -57 -5 -113 0c-4 57 -9 103 -3 166c54 55 122 75 206 75c177 0 261 -67 261 -196c0 -77 -58 -135 -119 -183c-37 -29 -52 -54 -66 -92
c-36 -6 -82 -5 -126 0c0 94 51 128 94 163c26 21 53 48 57 95c5 51 -23 103 -93 101z" />
    <glyph glyph-name="at" unicode="@" horiz-adv-x="1042" 
d="M756 90c100 9 140 132 149 209c28 220 -116 361 -324 362c-220 2 -421 -153 -447 -384c-26 -237 133 -394 366 -395c120 -1 213 21 324 77l39 -83c-99 -53 -241 -89 -375 -89c-287 2 -489 203 -454 492c34 280 264 470 553 467c260 -1 455 -174 420 -447
c-21 -158 -124 -310 -297 -304c-69 2 -107 31 -121 85c-48 -61 -131 -86 -187 -87c-132 -1 -168 125 -157 236c23 234 185 305 396 304c67 0 109 -4 170 -9l-8 -67c-21 -2 -30 -4 -51 -6l-37 -303c-3 -29 5 -62 41 -58zM598 441c-132 7 -196 -96 -204 -219
c-3 -55 4 -121 70 -120c51 1 84 49 104 92z" />
    <glyph glyph-name="A" unicode="A" horiz-adv-x="647" 
d="M427 80l-30 110h-191l-30 -110c22 -1 48 -3 69 -5v-70c-98 -12 -136 -12 -235 0v70c22 2 36 4 58 5l151 543c-22 1 -52 3 -73 6v69c92 11 165 10 258 6l183 -624c21 -1 29 -3 50 -5v-70c-99 -12 -181 -12 -279 0v70c21 2 48 4 69 5zM232 288h137l-69 247z" />
    <glyph glyph-name="B" unicode="B" horiz-adv-x="648" 
d="M114 80v543c-21 1 -48 3 -69 6v69c52 6 104 6 157 5h165c137 0 235 -64 235 -188c0 -57 -40 -112 -94 -140v-3c63 -26 110 -83 109 -153c0 -124 -93 -219 -250 -219h-168c-52 0 -103 -1 -154 5v70c21 2 48 4 69 5zM323 420c52 0 110 22 110 84c0 63 -44 92 -95 92h-64
v-176h49zM338 319h-64v-211h72c51 0 102 43 102 111c0 59 -54 100 -110 100z" />
    <glyph glyph-name="C" unicode="C" horiz-adv-x="608" 
d="M30 349c0 242 97 366 311 366c90 0 166 -29 225 -89c6 -67 6 -100 2 -173c-45 -6 -83 -6 -127 0c-8 113 -41 153 -108 154c-113 2 -127 -167 -127 -258s13 -256 128 -252c66 2 90 67 93 162c52 6 101 6 161 0c-2 -174 -107 -271 -260 -271c-194 0 -298 119 -298 361z" />
    <glyph glyph-name="D" unicode="D" horiz-adv-x="657" 
d="M115 623c-22 1 -49 3 -70 6v69c50 6 100 5 150 5h141c218 0 306 -151 306 -353c0 -196 -91 -350 -303 -350h-140c-52 0 -103 -1 -154 5v70c21 2 48 4 70 5v543zM331 110c127 0 141 154 141 241s-15 242 -141 242h-57v-483h57z" />
    <glyph glyph-name="E" unicode="E" horiz-adv-x="596" 
d="M114 80v543c-21 1 -48 3 -69 6v69c49 6 99 5 149 5h237c39 0 70 -2 110 -7c6 -71 6 -139 -3 -210h-73c-14 28 -30 67 -35 107h-156v-188h71c5 27 14 51 23 68h60c10 -75 10 -151 1 -226h-60c-11 18 -16 37 -23 64h-72v-201h156c5 40 21 79 35 107h73c9 -70 9 -138 3 -209
c-40 -6 -71 -8 -110 -8h-236c-50 0 -101 -1 -150 5v70c21 2 48 4 69 5z" />
    <glyph glyph-name="F" unicode="F" horiz-adv-x="576" 
d="M343 75v-70c-98 -12 -200 -12 -298 0v70c21 2 48 4 70 5v543c-22 1 -49 3 -70 6v69c50 6 101 5 152 5h234c40 0 71 -2 110 -7c6 -71 6 -139 -3 -210h-73c-14 28 -29 67 -35 107h-156v-203h76c5 32 14 54 23 71h60c10 -75 10 -159 1 -234h-60c-12 18 -16 41 -23 68h-77
v-215c22 -1 49 -3 69 -5z" />
    <glyph glyph-name="G" unicode="G" horiz-adv-x="627" 
d="M30 349c0 242 97 367 311 367c90 0 166 -29 224 -89c6 -54 6 -94 2 -152c-44 -6 -82 -5 -127 0c-5 94 -41 131 -107 132c-113 2 -128 -167 -128 -258s9 -255 123 -252c67 2 103 61 103 156v30c-44 4 -88 10 -130 20v70c80 8 188 7 276 0v-373h-66c-10 16 -21 37 -29 57
c-37 -43 -101 -69 -168 -69c-194 0 -284 119 -284 361z" />
    <glyph glyph-name="H" unicode="H" horiz-adv-x="750" 
d="M114 80v543c-21 1 -48 3 -69 6v69c98 12 200 12 298 0v-69c-21 -3 -48 -5 -69 -6v-212h202v212c-21 1 -48 3 -69 6v69c98 12 200 12 298 0v-69c-21 -3 -48 -5 -69 -6v-543c21 -1 48 -3 69 -5v-70c-98 -12 -200 -12 -298 0v70c21 2 48 4 69 5v233h-202v-233
c21 -1 48 -3 69 -5v-70c-98 -12 -200 -12 -298 0v70c21 2 48 4 69 5z" />
    <glyph glyph-name="I" unicode="I" horiz-adv-x="389" 
d="M115 623c-22 1 -48 3 -70 6v69c99 12 200 12 299 0v-69c-22 -3 -48 -5 -70 -6v-543c22 -1 48 -3 70 -5v-70c-99 -12 -200 -12 -299 0v70c22 2 48 4 70 5v543z" />
    <glyph glyph-name="J" unicode="J" horiz-adv-x="359" 
d="M105 623c-22 1 -48 3 -70 6v69c99 12 200 12 299 0v-69c-22 -3 -48 -5 -70 -6v-623c0 -78 -23 -201 -259 -189c-5 37 -6 55 -1 83c71 4 101 48 101 106v623z" />
    <glyph glyph-name="K" unicode="K" horiz-adv-x="729" 
d="M274 80c21 -1 48 -3 69 -5v-70c-98 -12 -200 -12 -298 0v70c21 2 48 4 69 5v543c-21 1 -48 3 -69 6v69c98 12 200 12 298 0v-69c-21 -3 -48 -5 -69 -6v-203h44l144 203c-21 1 -42 3 -63 6v69c98 12 203 12 302 0v-69c-21 -3 -51 -5 -73 -6l-182 -232l213 -311
c22 -1 48 -3 70 -5v-70c-99 -12 -222 -12 -320 0v70c21 2 43 4 65 5l-147 231h-53v-231z" />
    <glyph glyph-name="L" unicode="L" horiz-adv-x="553" 
d="M114 623c-21 1 -48 3 -69 6v69c99 12 200 12 298 0v-69c-21 -3 -48 -5 -69 -6v-513h138c12 51 26 90 39 124h74c11 -63 9 -157 3 -226c-39 -6 -78 -8 -117 -8h-218c-50 0 -99 -1 -148 5v70c21 2 48 4 69 5v543z" />
    <glyph glyph-name="M" unicode="M" horiz-adv-x="835" 
d="M259 698l152 -367l161 367c52 8 146 11 218 0v-69c-21 -3 -47 -5 -69 -6v-543c22 -1 48 -3 69 -6v-69c-98 -12 -199 -12 -298 0v69c21 3 48 5 69 6v363h-1c-5 -21 -12 -39 -18 -52l-99 -219c-33 -6 -69 -5 -111 0l-85 201c-4 11 -10 29 -14 50h-1v-343c21 -1 48 -3 69 -6
v-69c-98 -12 -157 -12 -256 0v69c22 3 48 5 70 6v543c-22 1 -48 3 -70 6v69c73 11 162 8 214 0z" />
    <glyph glyph-name="N" unicode="N" horiz-adv-x="731" 
d="M237 454h-1v-374c21 -2 48 -4 69 -6v-70c-98 -11 -162 -11 -260 0v70c21 2 47 4 69 6v542c-22 1 -48 3 -69 6v69c72 9 169 13 239 0l187 -402c11 -23 17 -35 22 -55h2v383c-22 1 -49 3 -70 6v69c99 12 163 12 261 0v-69c-21 -3 -48 -5 -69 -6v-618
c-69 -10 -105 -10 -173 0l-185 397c-10 17 -16 35 -22 52z" />
    <glyph glyph-name="O" unicode="O" 
d="M628 350c0 -213 -88 -360 -299 -360s-299 149 -298 361c0 211 80 363 298 363s298 -151 299 -364zM462 352c0 93 -7 253 -133 253s-132 -163 -133 -254c0 -91 7 -253 133 -253s133 160 133 254z" />
    <glyph glyph-name="P" unicode="P" horiz-adv-x="632" 
d="M115 80v543c-22 1 -49 3 -70 6v69c52 6 105 5 158 5h183c124 0 241 -74 240 -213c-1 -140 -114 -218 -251 -218h-101v-192c22 -1 48 -3 69 -5v-70c-98 -12 -199 -12 -298 0v70c21 2 48 4 70 5zM274 372h73c50 0 109 41 110 111c0 69 -52 113 -110 113h-73v-224z" />
    <glyph glyph-name="Q" unicode="Q" horiz-adv-x="657" 
d="M627 350c0 -196 -75 -337 -252 -358c46 -14 87 -47 133 -48c29 0 50 9 71 30c16 -13 33 -28 44 -49c-32 -61 -89 -98 -147 -99s-98 28 -146 58c-47 30 -98 41 -146 -2c-20 17 -36 35 -47 56c31 32 66 52 103 62c-147 37 -210 171 -210 351c0 211 81 363 299 363
s298 -151 298 -364zM461 352c0 93 -7 253 -132 253c-126 0 -133 -163 -133 -254s6 -253 133 -253c126 0 132 160 132 254z" />
    <glyph glyph-name="R" unicode="R" horiz-adv-x="693" 
d="M274 309v-229c22 -1 48 -3 69 -6v-69c-98 -12 -199 -12 -298 0v69c21 3 48 5 70 6v542c-22 2 -49 4 -70 6v70c49 5 97 5 146 5h216c138 0 226 -75 226 -199c0 -75 -57 -146 -146 -170l131 -256c21 -1 39 -3 60 -6v-69c-85 -12 -131 -12 -211 0l-130 306h-63zM464 506
c0 63 -44 89 -95 89h-95v-176h87c50 0 103 21 103 87z" />
    <glyph glyph-name="S" unicode="S" horiz-adv-x="548" 
d="M362 176c5 51 -44 77 -79 99c-54 32 -117 62 -172 106c-54 42 -80 89 -75 161c9 132 135 169 250 171c77 1 152 -20 184 -29c4 -63 5 -124 -2 -184h-67c-6 53 -43 99 -114 100c-39 0 -103 -7 -101 -63c1 -26 26 -45 50 -60c50 -30 102 -57 152 -88
c74 -48 140 -108 134 -198c-9 -129 -107 -200 -251 -200c-95 0 -167 28 -216 61c-2 58 -2 104 4 156h66c30 -67 67 -108 142 -106c39 1 90 21 95 74z" />
    <glyph glyph-name="T" unicode="T" horiz-adv-x="579" 
d="M369 80c22 -1 48 -3 70 -5v-70c-99 -12 -200 -12 -299 0v70c22 2 48 4 70 5v513h-74c-5 -40 -21 -93 -35 -121h-73c-9 71 -9 153 -3 224c40 5 71 7 110 7h309c39 0 70 -2 110 -7c6 -71 6 -153 -3 -224h-73c-15 28 -30 81 -35 121h-74v-513z" />
    <glyph glyph-name="U" unicode="U" horiz-adv-x="688" 
d="M341 98c85 0 93 65 93 130v395c-21 1 -48 3 -69 6v69c99 12 200 12 298 0v-69c-21 -3 -48 -5 -69 -6v-389c0 -235 -186 -234 -253 -234c-66 0 -247 -1 -247 234v389c-21 1 -48 3 -69 6v69c98 12 200 12 298 0v-69c-21 -3 -48 -5 -69 -6v-395c0 -65 3 -130 87 -130z" />
    <glyph glyph-name="V" unicode="V" horiz-adv-x="636" 
d="M250 0l-178 623c-22 2 -35 4 -57 6v70c99 11 167 11 265 0v-70c-21 -2 -48 -4 -69 -6l79 -301c7 -27 13 -55 17 -83h3c3 31 9 57 17 86l77 298c-21 2 -48 4 -69 6v70c98 11 187 11 286 0v-70c-11 -3 -35 -4 -59 -6l-172 -623c-50 -7 -90 -7 -140 0z" />
    <glyph glyph-name="W" unicode="W" horiz-adv-x="903" 
d="M605 698c94 11 186 10 283 0v-69c-22 -3 -34 -5 -55 -6l-155 -623c-41 -5 -66 -6 -125 0l-90 379c-5 19 -8 35 -10 58h-3c-2 -19 -5 -39 -10 -58l-91 -379c-43 -5 -81 -6 -125 0l-151 623c-22 1 -37 3 -58 6v69c99 12 168 12 266 0v-69c-21 -3 -48 -5 -69 -6l57 -265
c4 -21 8 -41 10 -62h4c2 24 6 42 12 62l87 345c48 5 80 5 128 0l83 -339c5 -20 9 -39 11 -61h3c2 23 5 42 10 63l58 257c-22 1 -48 3 -70 6v69z" />
    <glyph glyph-name="X" unicode="X" horiz-adv-x="661" 
d="M340 231l-95 -151c22 -1 43 -3 64 -5v-70c-98 -12 -196 -12 -294 0v70c21 2 36 4 57 5l182 286l-165 257c-21 1 -36 3 -57 6v69c98 12 177 12 275 0v-69c-21 -3 -48 -5 -69 -6l90 -141l89 141c-21 1 -44 3 -65 6v69c98 12 196 12 294 0v-69c-21 -3 -36 -5 -57 -6
l-175 -276l171 -267c22 -1 36 -3 58 -5v-70c-99 -12 -177 -12 -276 0v70c21 2 48 4 70 5z" />
    <glyph glyph-name="Y" unicode="Y" horiz-adv-x="616" 
d="M547 623l-159 -293v-250c22 -1 48 -3 70 -5v-70c-99 -12 -200 -12 -299 0v70c21 2 48 4 70 5v251l-159 292c-21 1 -34 3 -55 6v69c99 12 147 12 246 0v-69c-21 -3 -42 -5 -64 -6l93 -173l91 173c-22 1 -42 3 -64 6v69c99 12 186 12 284 0v-69c-21 -3 -33 -5 -54 -6z" />
    <glyph glyph-name="Z" unicode="Z" horiz-adv-x="567" 
d="M346 593h-180c-5 -40 -20 -104 -35 -132h-73c-9 70 -9 164 -3 235c40 5 71 7 110 7h249c35 0 74 -3 103 -7v-103l-294 -483h173c6 40 21 105 35 133h73c9 -71 9 -164 3 -235c-39 -6 -71 -8 -110 -8h-242c-35 0 -69 4 -104 8v102z" />
    <glyph glyph-name="bracketleft" unicode="[" horiz-adv-x="292" 
d="M60 703h222v-98h-118v-656h118v-98h-222v852z" />
    <glyph glyph-name="backslash" unicode="\" horiz-adv-x="400" 
d="M294 -181l-294 874c33 15 73 22 106 26l294 -874c-33 -20 -69 -24 -106 -26z" />
    <glyph glyph-name="bracketright" unicode="]" horiz-adv-x="293" 
d="M233 703v-852h-223v98h119v656h-119v98h223z" />
    <glyph glyph-name="asciicircum" unicode="^" horiz-adv-x="457" 
d="M50 391l121 312c38 3 77 4 115 0l121 -312c-31 -6 -60 -8 -89 -6l-89 194l-90 -194c-29 -2 -58 0 -89 6z" />
    <glyph glyph-name="underscore" unicode="_" horiz-adv-x="531" 
d="M0 -61h531v-66h-531v66z" />
    <glyph glyph-name="grave" unicode="`" horiz-adv-x="292" 
d="M110 708l152 -151c-14 -15 -43 -38 -60 -45l-172 137c20 19 54 47 80 59z" />
    <glyph glyph-name="a" unicode="a" horiz-adv-x="572" 
d="M274 92c24 1 44 5 67 13v115c-15 13 -41 21 -66 22c-44 2 -85 -18 -87 -70c-3 -52 39 -80 86 -80zM122 370h-57c-5 44 -2 102 4 141c63 23 137 30 182 30c158 -1 243 -64 243 -213v-246c23 -3 40 -8 58 -13v-66c-56 -9 -135 -18 -185 23c-46 -27 -86 -39 -140 -39
c-102 0 -185 61 -186 170c-1 51 13 103 57 134c33 22 78 31 127 32c45 0 82 -8 116 -21v33c0 56 -25 105 -102 107c-56 1 -99 -24 -117 -72z" />
    <glyph glyph-name="b" unicode="b" horiz-adv-x="626" 
d="M255 470c39 40 90 64 153 64c74 0 136 -35 161 -105c30 -81 35 -208 12 -295c-23 -81 -83 -145 -177 -145c-59 1 -119 25 -156 80c-4 -22 -12 -46 -21 -69c-67 -2 -124 -2 -187 5v66c22 4 38 5 62 7v535c-24 2 -38 5 -62 7v67c72 15 143 19 215 16v-233zM255 357v-163
c15 -43 42 -90 94 -90c45 -1 72 32 82 75c11 49 10 113 2 167c-7 44 -33 77 -83 77c-43 0 -73 -34 -95 -66z" />
    <glyph glyph-name="c" unicode="c" horiz-adv-x="532" 
d="M30 265c0 181 89 276 258 276c85 0 151 -27 199 -69c5 -50 5 -94 2 -149c-46 -4 -77 -4 -122 0c-1 90 -27 119 -84 120c-85 2 -97 -110 -97 -178s11 -180 97 -178c49 2 74 50 74 112c45 4 98 3 144 0c2 -130 -88 -209 -221 -209c-169 0 -250 95 -250 275z" />
    <glyph glyph-name="d" unicode="d" horiz-adv-x="606" 
d="M371 470v143c-23 2 -38 5 -61 7v67c71 15 142 19 215 16v-625c23 -2 38 -4 61 -7v-66c-63 -7 -119 -7 -186 -5c-9 23 -17 47 -22 69c-37 -55 -96 -79 -155 -80c-95 0 -155 64 -177 145c-24 87 -19 214 11 295c26 70 88 105 161 105c63 0 114 -24 153 -64zM371 357
c-21 32 -52 66 -94 66c-51 0 -77 -33 -84 -77c-8 -54 -8 -118 3 -167c10 -43 36 -76 82 -75c51 0 79 47 93 90v163z" />
    <glyph glyph-name="e" unicode="e" horiz-adv-x="559" 
d="M528 244c-27 -6 -69 -9 -98 -9h-245c-1 -73 26 -146 98 -148c49 -1 78 37 89 77c46 7 94 6 143 0c-13 -80 -77 -174 -225 -174c-176 0 -260 97 -260 279c0 167 84 272 247 272c182 0 259 -125 251 -297zM187 319h188c-4 67 -21 122 -98 122c-70 0 -89 -67 -90 -122z" />
    <glyph glyph-name="f" unicode="f" horiz-adv-x="414" 
d="M112 444c-31 1 -62 4 -92 8v72c32 4 64 7 97 8c-6 37 -8 65 -3 89c15 87 89 104 164 104c50 -1 96 -13 125 -23c1 -42 -2 -85 -7 -115h-49c-12 31 -35 38 -53 38c-44 0 -62 -35 -45 -92c40 -1 79 -4 118 -9v-72c-33 -4 -67 -7 -101 -9v-367c20 -2 41 -4 61 -6v-66
c-92 -11 -185 -11 -276 0v66c20 2 41 4 61 6v368z" />
    <glyph glyph-name="g" unicode="g" horiz-adv-x="541" 
d="M465 357c0 -109 -70 -183 -218 -183c-33 0 -63 3 -88 11c-23 -39 7 -63 48 -63h153c108 0 160 -80 147 -159c-18 -104 -117 -154 -279 -154c-88 -1 -195 29 -195 134c1 37 22 77 54 95c-40 28 -47 66 -45 100c1 30 16 62 37 90c-33 32 -49 77 -49 129
c0 107 66 184 217 184c30 0 56 -3 80 -9c82 1 176 -6 204 -16v-67c-14 -4 -47 -7 -83 -8c11 -25 17 -54 17 -84zM340 0h-160c-27 -13 -38 -32 -39 -49c-3 -43 62 -50 100 -50c48 -1 85 9 110 23c54 31 35 76 -11 76zM326 357c0 35 -11 95 -79 95c-67 0 -78 -61 -78 -95
s14 -94 78 -94s79 59 79 94z" />
    <glyph glyph-name="h" unicode="h" horiz-adv-x="670" 
d="M254 703v-229c51 43 120 70 186 66c127 -8 149 -109 149 -219v-244c20 -2 41 -3 61 -6v-66c-91 -11 -185 -11 -276 0v66c20 3 41 4 62 6v221c0 59 5 132 -72 131c-47 -1 -83 -33 -110 -66v-286c21 -2 42 -3 62 -6v-1v-65v-1c-92 -11 -185 -11 -276 0v67c20 3 40 4 61 6
v536c-23 2 -38 5 -61 7v67c71 15 142 19 214 16z" />
    <glyph glyph-name="i" unicode="i" horiz-adv-x="336" 
d="M90 646c0 65 34 83 88 83s88 -18 88 -83c0 -64 -35 -82 -88 -82s-88 18 -88 82zM255 534v-458c20 -2 41 -4 61 -6v-66c-91 -11 -185 -11 -276 0v66c20 2 41 4 61 6v368c-23 2 -38 4 -61 7v66c71 16 142 19 215 17z" />
    <glyph glyph-name="j" unicode="j" horiz-adv-x="321" 
d="M95 646c0 65 34 83 88 83s88 -18 88 -83c0 -64 -35 -82 -88 -82s-88 18 -88 82zM260 534v-534c0 -71 -53 -207 -245 -191v66c68 8 91 66 91 125v444c-23 2 -38 4 -61 7v66c71 16 142 19 215 17z" />
    <glyph glyph-name="k" unicode="k" horiz-adv-x="672" 
d="M40 70c20 2 42 4 62 6v537c-18 1 -42 3 -62 7v67c67 16 138 18 215 16v-367h59l90 115c-20 2 -31 4 -52 6v66c91 11 179 11 270 0v-66c-21 -2 -41 -4 -62 -6l-129 -153l164 -221c21 -1 41 -3 62 -6v-66c-91 -11 -197 -11 -288 0v66c20 3 23 5 44 6l-100 153h-58v-154
c21 -2 37 -4 57 -6v-66c-89 -11 -180 -11 -272 0v66z" />
    <glyph glyph-name="l" unicode="l" horiz-adv-x="336" 
d="M255 703v-627c20 -2 41 -4 61 -6v-66c-91 -11 -185 -11 -276 0v66c20 2 41 4 61 6v537c-23 2 -38 5 -61 7v67c71 15 142 19 215 16z" />
    <glyph glyph-name="m" unicode="m" horiz-adv-x="984" 
d="M40 5v66c21 3 41 4 62 6v362c-23 2 -44 5 -62 7v67c65 16 120 23 187 22c7 -23 12 -48 15 -73c51 50 116 82 188 78c74 -4 113 -35 132 -82c59 58 124 86 192 82c127 -8 149 -92 149 -202v-261c20 -1 41 -3 61 -6v-66c-91 -11 -185 -11 -276 0v66c20 3 41 4 62 6v244
c0 59 -9 109 -64 107c-48 -1 -93 -48 -107 -63v-288c21 -1 41 -3 61 -6v-66c-91 -11 -185 -11 -276 0v66c20 3 41 4 62 6v244c0 59 -8 109 -64 107c-46 -1 -80 -32 -107 -65v-286c21 -2 41 -3 62 -6v-66c-91 -11 -186 -11 -277 0z" />
    <glyph glyph-name="n" unicode="n" horiz-adv-x="671" 
d="M40 5v66c21 3 41 4 62 6v362c-23 2 -44 5 -62 7v67c65 16 120 23 187 22c7 -23 12 -48 15 -73c51 50 127 82 199 78c127 -8 149 -109 149 -219v-244c20 -2 41 -3 61 -6v-66c-91 -11 -185 -11 -276 0v66c20 3 41 4 62 6v221c0 59 5 132 -72 131c-47 -1 -83 -33 -110 -66
v-286c21 -2 42 -3 62 -6v-66c-91 -11 -186 -11 -277 0z" />
    <glyph glyph-name="o" unicode="o" horiz-adv-x="585" 
d="M555 264c0 -161 -84 -274 -262 -274c-179 0 -263 114 -263 274c0 161 80 277 263 277c182 0 262 -115 262 -277zM400 265c0 65 -6 176 -107 176c-102 0 -108 -114 -108 -176c0 -63 5 -175 108 -175c102 0 107 111 107 175z" />
    <glyph glyph-name="p" unicode="p" horiz-adv-x="626" 
d="M255 368v-163c14 -42 44 -90 96 -90c78 0 89 98 89 161c0 59 -6 158 -90 158c-43 0 -73 -34 -95 -66zM40 -171v67c21 2 41 4 62 5v537c-24 2 -38 5 -62 7v67c65 16 120 23 187 22c7 -25 11 -49 15 -74c40 49 95 85 166 85c154 0 188 -143 188 -276
c0 -123 -40 -260 -192 -269c-62 0 -121 28 -149 77v-176c21 -1 41 -3 62 -5v-67c-91 -11 -186 -11 -277 0z" />
    <glyph glyph-name="q" unicode="q" horiz-adv-x="626" 
d="M371 368c-22 32 -52 66 -95 66c-51 0 -76 -33 -83 -77c-8 -54 -9 -118 2 -167c10 -43 37 -76 82 -75c52 0 79 47 94 90v163zM586 -171c-91 -11 -186 -11 -277 0v66c21 3 41 5 62 6v176c-29 -50 -87 -77 -149 -77c-94 0 -154 64 -177 145c-24 87 -18 214 12 295
c25 70 87 105 160 105c72 0 126 -36 167 -85c3 24 8 49 15 73c67 2 122 -6 187 -21v-67c-24 -3 -39 -5 -62 -7v-537c21 -1 41 -3 62 -6v-66z" />
    <glyph glyph-name="r" unicode="r" horiz-adv-x="481" 
d="M40 5v66c20 3 41 4 61 6v362c-22 2 -43 5 -61 7v67c65 16 120 23 187 22c6 -23 11 -72 15 -98c37 62 82 98 157 98c17 0 38 -2 61 -7c1 -68 -1 -128 -7 -185h-57c-12 32 -33 51 -64 51c-26 0 -58 -19 -77 -64v-253c20 -2 41 -3 61 -6v-66c-91 -11 -185 -11 -276 0z" />
    <glyph glyph-name="s" unicode="s" horiz-adv-x="440" 
d="M270 135c2 26 -13 39 -32 50c-46 28 -105 54 -154 91c-36 27 -60 62 -58 114c5 121 109 147 205 148c61 0 131 -17 156 -24c6 -44 5 -106 0 -150h-58c-12 32 -41 69 -91 73c-31 2 -74 -4 -77 -42c-2 -22 17 -36 34 -46c43 -26 89 -47 133 -73c54 -31 91 -70 86 -133
c-8 -109 -90 -150 -204 -150c-75 0 -144 20 -183 45c-2 48 -1 92 4 132h59c18 -48 57 -80 102 -81c30 -1 75 4 78 46z" />
    <glyph glyph-name="t" unicode="t" horiz-adv-x="405" 
d="M233 443v-274c0 -52 22 -74 59 -75c23 -1 60 7 83 20c17 -23 26 -47 30 -65c-23 -23 -76 -54 -147 -56c-96 -2 -178 31 -178 152v300c-28 2 -33 5 -60 8v60c113 28 130 97 142 146h71v-128c37 -1 75 -4 111 -8v-73c-36 -4 -74 -7 -111 -7z" />
    <glyph glyph-name="u" unicode="u" 
d="M403 163v288c-20 2 -41 4 -61 6v66c91 11 185 11 276 0v-66c-20 -2 -41 -4 -61 -6v-367c20 -3 45 -9 61 -15v-66c-53 -7 -120 -5 -187 -4l-15 69c-56 -56 -115 -85 -198 -80c-127 8 -136 117 -136 176v287c-21 2 -42 4 -62 6v66c91 11 185 11 276 0v-66
c-20 -2 -40 -4 -61 -6v-270c0 -59 24 -84 63 -83c46 1 79 31 105 65z" />
    <glyph glyph-name="v" unicode="v" horiz-adv-x="578" 
d="M221 0l-161 453c-21 1 -29 3 -50 5v67c91 10 161 10 252 0v-67c-21 -2 -41 -4 -62 -5l66 -200c6 -18 11 -34 16 -54h1c4 21 10 37 15 53l71 201c-20 1 -41 3 -61 5v67c91 10 169 10 260 0v-67c-21 -2 -31 -4 -52 -5l-169 -453c-31 -3 -98 -3 -126 0z" />
    <glyph glyph-name="w" unicode="w" horiz-adv-x="789" 
d="M322 528c42 3 83 3 128 0l68 -274c4 -16 6 -32 8 -48h3c2 16 4 33 8 48l46 199c-21 1 -35 3 -55 5v67c92 10 159 10 251 0v-67c-20 -2 -31 -4 -52 -5l-117 -453c-29 -3 -110 -3 -141 0l-67 250c-3 18 -7 34 -9 55h-4c-2 -18 -5 -37 -11 -56l-69 -249
c-32 -3 -104 -3 -134 0l-109 453c-21 1 -35 3 -56 5v67c93 10 145 10 237 0v-67c-20 -2 -37 -4 -58 -5l43 -200c4 -15 6 -31 8 -47h3c1 18 4 33 8 48z" />
    <glyph glyph-name="x" unicode="x" horiz-adv-x="616" 
d="M223 77c21 -1 41 -3 62 -6v-66c-91 -11 -179 -11 -270 0v66c20 3 34 5 55 6l161 193l-152 181c-20 2 -35 4 -55 6v66c91 11 179 11 270 0v-66c-20 -2 -41 -4 -61 -6l75 -89l75 89c-21 2 -41 4 -62 6v66c91 11 177 11 268 0v-66c-20 -2 -32 -4 -53 -6l-151 -181l163 -193
c20 -1 32 -3 53 -6v-66c-91 -11 -177 -11 -268 0v66c20 3 41 5 61 6l-86 102z" />
    <glyph glyph-name="y" unicode="y" horiz-adv-x="566" 
d="M305 195h3c2 16 9 40 13 52l67 206c-21 2 -36 3 -56 6v66c91 11 133 11 224 0v-66c-21 -3 -38 -4 -59 -6l-169 -520c-24 -72 -71 -108 -150 -110c-45 -1 -91 9 -124 33c-5 42 -5 72 1 110h63c12 -23 30 -35 55 -34c22 0 51 8 60 51l-173 470c-20 2 -30 2 -50 4v66
c91 11 183 13 274 2v-66c-20 -3 -41 -4 -61 -6l69 -205c5 -13 10 -38 13 -53z" />
    <glyph glyph-name="z" unicode="z" horiz-adv-x="525" 
d="M297 430h-159c-4 -36 -15 -74 -25 -100h-64c-9 68 -9 120 -7 191c35 5 75 7 110 7h205c47 0 74 -1 120 -7v-82l-249 -341h159c4 36 15 74 25 100h64c9 -68 9 -120 7 -191c-35 -5 -70 -7 -105 -7h-206c-46 0 -77 2 -124 7v82z" />
    <glyph glyph-name="braceleft" unicode="{" horiz-adv-x="303" 
d="M293 -149h-82c-94 0 -126 49 -126 140v202c0 34 -24 43 -53 43c-2 27 -3 55 0 82c29 0 53 9 53 43v202c0 91 32 140 126 140h82v-90h-53c-34 0 -51 -20 -51 -62v-179c0 -47 -21 -82 -53 -95c32 -13 53 -48 53 -95v-179c0 -42 17 -62 51 -62h53v-90z" />
    <glyph glyph-name="afii10017" unicode="&#x410;" horiz-adv-x="646" 
d="M427 80l-31 109h-191l-30 -109c22 -1 49 -3 70 -6v-69c-99 -12 -137 -12 -235 0v69c21 3 35 5 57 6l151 543c-22 1 -51 3 -72 6v69c92 11 165 10 257 6l183 -624c22 -1 29 -3 50 -6v-69c-98 -12 -180 -12 -279 0v69c22 3 48 5 70 6zM232 287h137l-70 248z" />
    <glyph glyph-name="afii10018" unicode="&#x411;" horiz-adv-x="643" 
d="M114 80v543c-21 1 -48 3 -69 6v69c48 6 98 5 147 5h264c39 0 78 -2 118 -8c2 -79 -1 -142 -13 -226h-75c-13 44 -21 82 -22 124h-190v-162h93c122 0 251 -74 250 -213c0 -160 -138 -218 -274 -218h-150c-50 0 -99 -1 -148 5v69c21 3 48 5 69 6zM448 219
c0 69 -52 112 -110 112h-64v-224h64c51 0 110 43 110 112z" />
    <glyph glyph-name="afii10019" unicode="&#x412;" horiz-adv-x="648" 
d="M367 703c138 0 236 -64 236 -188c0 -58 -41 -112 -94 -140v-3c63 -27 109 -84 109 -154c0 -123 -93 -218 -251 -218h-168c-51 0 -103 -1 -154 5v69c22 3 48 5 70 6v543c-22 1 -48 3 -70 6v69c52 6 105 5 158 5h164zM339 319h-65v-212h72c52 0 102 44 102 112
c0 59 -54 100 -109 100zM324 420c51 0 109 22 109 84c0 63 -43 91 -95 91h-64v-175h50z" />
    <glyph glyph-name="afii10020" unicode="&#x413;" horiz-adv-x="555" 
d="M115 80v543c-22 1 -48 3 -70 6v69c49 6 99 5 148 5h224c38 0 78 -2 117 -8c2 -79 -6 -149 -24 -226h-75c-11 42 -17 84 -19 124h-142v-513c22 -1 48 -3 70 -6v-69c-99 -12 -200 -12 -299 0v69c22 3 48 5 70 6z" />
    <glyph glyph-name="afii10021" unicode="&#x414;" horiz-adv-x="677" 
d="M498 0h-333c-1 -46 -9 -100 -18 -142h-99c-22 88 -24 159 -21 249h62c41 189 60 343 60 516c-22 1 -48 3 -70 6v69c48 6 91 5 134 5h270c46 0 95 0 141 -5v-69c-21 -3 -48 -5 -70 -6v-516h82c2 -90 1 -161 -20 -249h-99c-10 42 -17 96 -19 142zM208 107h187v486h-127
c-3 -163 -32 -341 -60 -486z" />
    <glyph glyph-name="afii10022" unicode="&#x415;" horiz-adv-x="596" 
d="M114 80v543c-21 1 -48 3 -69 6v69c49 6 100 5 150 5h236c39 0 71 -2 110 -8c6 -71 6 -138 -3 -209h-73c-14 28 -29 67 -35 107h-156v-188h72c4 27 13 51 22 68h60c10 -75 10 -151 1 -226h-60c-11 18 -16 36 -23 63h-72v-200h156c6 40 21 79 35 107h73
c9 -71 9 -139 3 -209c-39 -6 -71 -8 -110 -8h-236c-50 0 -101 -1 -150 5v69c21 3 48 5 69 6z" />
    <glyph glyph-name="afii10024" unicode="&#x416;" horiz-adv-x="919" 
d="M380 80v232c-175 9 -91 -225 -215 -298c-43 -25 -93 -20 -145 -13v70c56 0 63 107 77 157c18 63 45 134 120 146v4c-59 18 -79 85 -94 140c-14 47 -31 113 -92 104l-7 71c122 31 195 18 235 -107c27 -83 22 -165 121 -163v200c-22 1 -48 3 -70 6v69c99 12 200 12 299 0
v-69c-22 -3 -48 -5 -70 -6v-200c99 -2 93 80 119 163c40 125 114 138 236 107l-7 -71c-61 9 -79 -57 -92 -104c-15 -55 -34 -122 -93 -140v-4c76 -12 102 -83 120 -146c14 -50 21 -157 77 -157v-70c-52 -7 -102 -12 -145 13c-123 73 -40 307 -215 298v-232
c22 -1 48 -3 70 -6v-69c-99 -12 -200 -12 -299 0v69c22 3 48 5 70 6z" />
    <glyph glyph-name="afii10025" unicode="&#x417;" horiz-adv-x="544" 
d="M27 219c52 6 96 4 147 -2c-2 -60 28 -108 93 -106c67 1 93 45 94 99c0 97 -78 113 -153 107v98c66 -8 127 19 127 87c1 43 -41 84 -90 85c-54 0 -103 -19 -114 -112h-86c-3 66 -3 118 2 181c48 26 106 51 206 51c136 0 243 -59 243 -193c-1 -47 -28 -110 -87 -137v-2
c62 -22 110 -73 109 -164c0 -155 -117 -216 -256 -216c-110 0 -219 50 -235 181c-1 13 -2 27 -2 42c1 1 2 1 2 1z" />
    <glyph glyph-name="afii10026" unicode="&#x418;" horiz-adv-x="735" 
d="M115 80v543c-22 1 -48 3 -70 6v69c99 12 198 12 296 0v-69c-21 -3 -48 -5 -69 -6v-386h1c11 34 24 73 35 99l155 361c81 12 125 14 227 0v-69c-22 -3 -48 -5 -70 -6v-543c22 -1 48 -3 70 -6v-69c-99 -12 -198 -12 -296 0v69c21 3 48 5 69 6v389h-1
c-7 -29 -15 -57 -28 -85l-162 -378c-81 -12 -125 -14 -227 0v69c22 3 48 5 70 6z" />
    <glyph glyph-name="afii10027" unicode="&#x419;" horiz-adv-x="734" 
d="M115 80v543c-22 1 -49 3 -70 6v69c99 12 197 12 296 0v-69c-22 -3 -48 -5 -70 -6v-386h2c10 34 24 73 35 99l155 361c81 12 125 14 226 0v-69c-21 -3 -48 -5 -69 -6v-543c21 -1 48 -3 69 -6v-69c-98 -12 -197 -12 -295 0v69c21 3 47 5 69 6v389h-1
c-7 -29 -16 -57 -28 -85l-163 -378c-80 -12 -124 -14 -226 0v69c21 3 48 5 70 6zM535 764c-105 -14 -217 -14 -322 -1v83c103 13 220 13 322 0v-82z" />
    <glyph glyph-name="afii10028" unicode="&#x41a;" horiz-adv-x="664" 
d="M114 80v543c-22 1 -48 3 -69 6v69c98 12 199 12 298 0v-69c-21 -3 -48 -5 -70 -6v-200c100 -2 102 80 128 163c41 125 115 138 238 107l-8 -71c-61 9 -78 -57 -92 -104c-15 -55 -41 -122 -101 -140v-4c76 -12 103 -83 121 -146c14 -50 29 -157 85 -157v-70
c-53 -7 -103 -12 -146 13c-125 73 -49 307 -225 298v-232c22 -1 49 -3 70 -6v-69c-99 -12 -200 -12 -298 0v69c21 3 47 5 69 6z" />
    <glyph glyph-name="afii10029" unicode="&#x41b;" horiz-adv-x="632" 
d="M410 80l-117 455l-112 -455c22 -1 49 -3 70 -6v-69c-99 -12 -142 -12 -241 0v69c22 3 38 5 59 6l139 543c-21 1 -51 3 -72 6v69c92 11 169 10 261 6l173 -624c21 -1 31 -3 52 -6v-69c-98 -12 -183 -12 -281 0v69c21 3 48 5 69 6z" />
    <glyph glyph-name="afii10030" unicode="&#x41c;" horiz-adv-x="835" 
d="M259 698l152 -367l161 367c52 8 146 11 218 0v-69c-21 -3 -47 -5 -69 -6v-543c22 -1 48 -3 69 -6v-69c-98 -12 -199 -12 -298 0v69c21 3 48 5 69 6v363h-1c-5 -21 -12 -39 -18 -52l-99 -219c-33 -6 -69 -5 -111 0l-85 201c-4 11 -10 29 -14 50h-1v-343c21 -1 48 -3 69 -6
v-69c-98 -12 -157 -12 -256 0v69c22 3 48 5 70 6v543c-22 1 -48 3 -70 6v69c73 11 162 8 214 0z" />
    <glyph glyph-name="afii10031" unicode="&#x41d;" horiz-adv-x="751" 
d="M115 80v543c-22 1 -48 3 -70 6v69c99 12 200 12 299 0v-69c-22 -3 -48 -5 -70 -6v-212h203v212c-22 1 -48 3 -70 6v69c99 12 200 12 299 0v-69c-22 -3 -48 -5 -70 -6v-543c22 -1 48 -3 70 -6v-69c-99 -12 -200 -12 -299 0v69c22 3 48 5 70 6v233h-203v-233
c22 -1 48 -3 70 -6v-69c-99 -12 -200 -12 -299 0v69c22 3 48 5 70 6z" />
    <glyph glyph-name="afii10032" unicode="&#x41e;" 
d="M627 350c1 -213 -88 -361 -298 -361c-211 0 -299 150 -299 361c0 212 81 364 299 364s298 -151 298 -364zM462 351c0 94 -7 254 -133 254s-133 -163 -133 -255c0 -91 6 -252 133 -252c126 0 133 160 133 253z" />
    <glyph glyph-name="afii10033" unicode="&#x41f;" horiz-adv-x="741" 
d="M114 80v543c-21 1 -48 3 -69 6v69c49 6 100 5 150 5h351c50 0 100 1 150 -5v-69c-21 -3 -48 -5 -70 -6v-543c22 -1 49 -3 70 -6v-69c-99 -12 -200 -12 -298 0v69c21 3 47 5 69 6v525h-193v-525c21 -1 48 -3 69 -6v-69c-98 -12 -200 -12 -298 0v69c21 3 48 5 69 6z" />
    <glyph glyph-name="afii10034" unicode="&#x420;" horiz-adv-x="632" 
d="M114 80v543c-22 1 -48 3 -69 6v69c52 6 105 5 157 5h183c124 0 242 -74 241 -214c-1 -139 -114 -218 -251 -218h-102v-191c22 -1 49 -3 70 -6v-69c-99 -12 -200 -12 -298 0v69c21 3 47 5 69 6zM273 372h73c51 0 109 41 110 110c1 70 -52 113 -110 113h-73v-223z" />
    <glyph glyph-name="afii10035" unicode="&#x421;" horiz-adv-x="608" 
d="M588 259c-3 -151 -91 -271 -259 -271c-195 0 -299 119 -299 361s97 366 311 366c81 0 159 -27 225 -89c6 -67 6 -100 2 -173c-58 -6 -90 -5 -127 0c-7 112 -42 152 -108 153c-113 2 -127 -166 -127 -257s13 -256 128 -253c66 2 91 68 93 163c53 5 105 4 161 0z" />
    <glyph glyph-name="afii10036" unicode="&#x422;" horiz-adv-x="579" 
d="M369 593v-513c22 -1 49 -3 70 -6v-69c-99 -12 -200 -12 -298 0v69c21 3 47 5 69 6v513h-74c-5 -40 -20 -93 -35 -121h-73c-9 71 -9 152 -3 223c40 6 71 8 110 8h309c39 0 71 -2 110 -8c6 -71 6 -152 -3 -223h-73c-14 28 -29 81 -35 121h-74z" />
    <glyph glyph-name="afii10037" unicode="&#x423;" horiz-adv-x="632" 
d="M363 372l85 250c-21 2 -48 4 -69 6v70c98 11 154 11 253 0v-70c-22 -2 -48 -4 -70 -6l-174 -483c-52 -146 -184 -170 -291 -121c-7 65 -7 103 -2 166h68c16 -22 24 -36 37 -67c15 -6 27 -6 37 -5c23 2 41 22 49 46l2 6l-203 458c-22 2 -49 4 -70 6v70c99 11 210 11 308 0
v-70c-21 -2 -47 -4 -69 -6z" />
    <glyph glyph-name="afii10038" unicode="&#x424;" horiz-adv-x="763" 
d="M303 80v104h-88c-135 0 -215 91 -215 215s81 210 215 210h88v54c-22 2 -49 3 -70 6v69c84 13 171 18 229 9v-138h87c135 0 214 -86 214 -210s-79 -215 -214 -215h-87v-104c22 -1 48 -3 70 -6v-69c-99 -12 -200 -12 -299 0v69c21 3 48 5 70 6zM303 276v247h-48
c-65 0 -96 -61 -96 -124c0 -62 32 -123 96 -123h48zM462 523v-247h48c64 0 95 61 95 123c0 63 -31 124 -95 124h-48z" />
    <glyph glyph-name="afii10039" unicode="&#x425;" horiz-adv-x="662" 
d="M246 80c22 -1 43 -3 64 -6v-69c-98 -12 -196 -12 -295 0v69c22 3 37 5 58 6l182 286l-165 257c-21 1 -36 3 -58 6v69c99 12 178 12 276 0v-69c-21 -3 -48 -5 -69 -6l90 -141l89 141c-22 1 -44 3 -66 6v69c99 12 197 12 295 0v-69c-21 -3 -36 -5 -57 -6l-175 -276
l171 -267c22 -1 36 -3 58 -6v-69c-99 -12 -178 -12 -276 0v69c21 3 48 5 69 6l-96 150z" />
    <glyph glyph-name="afii10040" unicode="&#x426;" horiz-adv-x="744" 
d="M114 80v543c-21 1 -48 3 -69 6v69c99 12 200 12 298 0v-69c-21 -3 -48 -5 -69 -6v-519h193v519c-21 1 -48 3 -69 6v69c98 12 200 12 298 0v-69c-21 -3 -48 -5 -69 -6v-516h75c3 -91 2 -161 -19 -249h-99c-10 42 -17 96 -19 142h-360c-54 0 -107 -1 -160 5v69
c21 3 48 5 69 6z" />
    <glyph glyph-name="afii10041" unicode="&#x427;" horiz-adv-x="691" 
d="M296 268c-118 0 -211 69 -211 200v155c-22 1 -38 3 -60 6v69c95 11 190 11 289 0v-69c-21 -3 -47 -5 -70 -6v-159c3 -55 42 -98 101 -98h72v257c-21 1 -48 3 -69 6v69c98 12 200 12 298 0v-69c-21 -3 -48 -5 -69 -6v-543c21 -1 48 -3 69 -6v-69c-98 -12 -200 -12 -298 0
v69c21 3 48 5 69 6v188h-121z" />
    <glyph glyph-name="afii10042" unicode="&#x428;" horiz-adv-x="1074" 
d="M115 80v543c-22 1 -48 3 -70 6v69c99 12 200 12 299 0v-69c-22 -3 -48 -5 -70 -6v-519h183v519c-21 1 -48 3 -69 6v69c98 12 200 12 298 0v-69c-21 -3 -48 -5 -69 -6v-519h183v519c-22 1 -48 3 -70 6v69c99 12 200 12 299 0v-69c-21 -3 -48 -5 -70 -6v-543
c22 -1 49 -3 70 -6v-69c-48 -6 -97 -5 -146 -5h-682c-52 0 -104 -1 -156 5v69c22 3 48 5 70 6z" />
    <glyph glyph-name="afii10043" unicode="&#x429;" horiz-adv-x="1081" 
d="M114 80v543c-21 1 -48 3 -69 6v69c98 12 200 12 298 0v-69c-21 -3 -48 -5 -69 -6v-519h183v519c-22 1 -48 3 -70 6v69c99 12 200 12 299 0v-69c-22 -3 -48 -5 -70 -6v-519h183v519c-21 1 -48 3 -69 6v69c99 12 200 12 298 0v-69c-21 -3 -48 -5 -69 -6v-519h81
c2 -90 2 -158 -20 -246h-99c-9 43 -17 95 -18 142h-702c-52 0 -105 -1 -156 5v69c21 3 48 5 69 6z" />
    <glyph glyph-name="afii10044" unicode="&#x42a;" horiz-adv-x="715" 
d="M203 599h-67c-5 -41 -20 -79 -35 -107h-73c-9 70 -9 132 -3 203c40 6 71 8 110 8h204c30 0 62 -1 93 -5v-69c-22 -3 -48 -5 -70 -6v-192h101c137 0 250 -78 251 -218c1 -139 -116 -213 -240 -213h-183c-52 0 -106 -1 -158 5v69c22 3 48 5 70 6v519zM435 331h-73v-224h73
c58 0 110 44 110 114c-1 69 -60 110 -110 110z" />
    <glyph glyph-name="afii10045" unicode="&#x42b;" horiz-adv-x="945" 
d="M375 431c121 0 250 -74 251 -218c1 -132 -118 -213 -251 -213h-173c-52 0 -105 -1 -157 5v69c21 3 48 5 69 6v543c-21 1 -48 3 -69 6v69c98 12 200 12 298 0v-69c-21 -3 -48 -5 -69 -6v-192h101zM346 107c58 0 111 48 110 114c0 58 -50 110 -110 110h-72v-224h72z
M671 623c-21 1 -48 3 -69 6v69c98 12 200 12 298 0v-69c-21 -3 -48 -5 -69 -6v-543c21 -1 48 -3 69 -6v-69c-98 -12 -200 -12 -298 0v69c21 3 48 5 69 6v543z" />
    <glyph glyph-name="afii10046" unicode="&#x42c;" horiz-adv-x="627" 
d="M114 623c-22 1 -48 3 -69 6v69c98 12 199 12 298 0v-69c-21 -3 -48 -5 -70 -6v-192h102c137 0 250 -78 251 -218c1 -139 -117 -213 -241 -213h-183c-52 0 -105 -1 -157 5v69c21 3 47 5 69 6v543zM273 331v-224h73c58 0 111 44 110 114c-1 69 -59 110 -110 110h-73z" />
    <glyph glyph-name="afii10047" unicode="&#x42d;" horiz-adv-x="608" 
d="M578 349c0 -242 -104 -361 -299 -361c-152 0 -258 82 -259 271c60 5 101 6 153 0c3 -95 35 -161 101 -163c96 -2 128 101 127 203h-167v110h166c-2 94 -31 199 -122 197c-66 -1 -104 -41 -111 -153c-45 -6 -82 -6 -127 0c-4 73 -4 106 2 173c59 60 138 89 228 89
c215 0 308 -124 308 -366z" />
    <glyph glyph-name="afii10048" unicode="&#x42e;" horiz-adv-x="969" 
d="M770 351c0 89 -7 242 -122 242c-116 0 -124 -156 -124 -243c-1 -86 6 -240 123 -240c118 0 123 153 123 241zM114 623c-21 1 -48 3 -69 6v69c99 12 200 12 298 0v-69c-21 -3 -48 -5 -69 -6v-198h85c19 170 92 286 289 286c196 0 290 -149 290 -361
c1 -211 -98 -358 -291 -358c-192 0 -281 132 -291 323h-82v-235c21 -1 48 -3 69 -6v-69c-98 -12 -199 -12 -298 0v69c21 3 48 5 69 6v543z" />
    <glyph glyph-name="afii10049" unicode="&#x42f;" horiz-adv-x="695" 
d="M581 623v-543c21 -1 48 -3 69 -6v-69c-98 -12 -200 -12 -298 0v69c21 3 48 5 69 6v221c-112 6 -132 -63 -155 -137c-18 -57 -40 -118 -95 -150c-43 -25 -93 -20 -146 -13v70c57 0 75 91 89 140c12 43 43 103 98 123v4c-86 6 -145 94 -145 166c0 124 98 199 235 199h198
c51 0 101 1 150 -5v-69c-21 -3 -48 -5 -69 -6zM421 411v184h-90c-51 0 -95 -28 -95 -91s59 -93 110 -93h75z" />
    <glyph glyph-name="afii10065" unicode="&#x430;" horiz-adv-x="572" 
d="M274 92c24 1 44 5 67 13v115c-15 13 -41 21 -66 22c-44 2 -85 -18 -87 -70c-3 -52 39 -80 86 -80zM122 370h-57c-5 44 -2 102 4 141c63 23 137 30 182 30c158 -1 243 -64 243 -213v-246c23 -3 40 -8 58 -13v-66c-56 -9 -135 -18 -185 23c-46 -27 -86 -39 -140 -39
c-102 0 -185 61 -186 170c-1 51 13 103 57 134c33 22 78 31 127 32c45 0 82 -8 116 -21v33c0 56 -25 105 -102 107c-56 1 -99 -24 -117 -72z" />
    <glyph glyph-name="afii10066" unicode="&#x431;" horiz-adv-x="559" 
d="M31 316c-3 188 82 345 273 360c116 10 152 32 167 48c22 -12 47 -44 52 -60c-46 -81 -131 -103 -193 -110c-66 -8 -136 -30 -164 -130l4 -3c29 38 85 69 151 69c164 0 218 -103 218 -247c0 -143 -83 -253 -249 -253c-211 0 -256 156 -259 326zM386 239
c0 55 -5 153 -95 153c-91 0 -102 -97 -102 -153c0 -47 11 -154 101 -154c91 0 96 99 96 154z" />
    <glyph glyph-name="afii10067" unicode="&#x432;" horiz-adv-x="567" 
d="M40 4v66c21 3 41 4 62 6v372c-24 2 -38 4 -62 7v66c37 5 74 7 110 7h173c90 0 205 -26 205 -139c0 -40 -32 -91 -75 -116v-2c50 -18 94 -53 94 -119c0 -103 -92 -152 -205 -152h-168c-45 0 -95 1 -134 4zM292 313c41 0 80 14 80 65c0 52 -44 65 -86 65h-31v-130h37z
M306 233h-51v-147h47c42 0 86 18 86 71c0 51 -40 76 -82 76z" />
    <glyph glyph-name="afii10068" unicode="&#x433;" horiz-adv-x="486" 
d="M40 3v67c20 2 41 4 61 5v372c-23 2 -38 5 -61 8v66c46 5 83 7 130 7h200c35 0 70 -2 105 -7c2 -71 -5 -134 -22 -202h-67c-5 36 -7 73 -9 111h-123v-355c21 -1 42 -3 62 -5v-67c-91 -10 -185 -10 -276 0z" />
    <glyph glyph-name="afii10069" unicode="&#x434;" horiz-adv-x="578" 
d="M473 98h68c3 -83 1 -148 -18 -228h-91c-8 39 -16 86 -18 130h-276c-1 -43 -8 -91 -17 -130h-91c-20 80 -21 145 -19 228h59c25 108 50 233 45 353c-21 1 -42 3 -62 6v66c44 5 83 5 123 5h277c27 0 55 -2 81 -5v-66c-20 -3 -40 -5 -61 -6v-353zM220 435
c-2 -112 -22 -233 -46 -337h146v337h-100z" />
    <glyph glyph-name="afii10070" unicode="&#x435;" horiz-adv-x="559" 
d="M528 244c-27 -6 -69 -9 -98 -9h-245c-1 -73 26 -146 98 -148c49 -1 78 37 89 76c47 8 95 7 144 0c-13 -80 -78 -173 -225 -173c-177 0 -261 96 -261 279c0 167 84 272 247 272c182 0 259 -125 251 -297zM187 319h188c-4 67 -20 122 -98 122c-70 0 -89 -67 -90 -122z" />
    <glyph glyph-name="afii10072" unicode="&#x436;" horiz-adv-x="814" 
d="M332 322v129c-21 1 -41 3 -62 5v67c91 10 183 10 273 0v-67c-20 -2 -41 -4 -61 -5v-129c62 -2 76 47 95 102c23 64 55 109 130 110c25 1 53 -3 84 -10l-7 -66c-59 9 -72 -57 -85 -91c-15 -38 -35 -69 -77 -82v-2c61 -9 78 -64 92 -114c12 -39 34 -101 80 -101v-66
c-43 -5 -107 -9 -142 10c-51 30 -64 87 -77 137c-13 52 -30 89 -93 86v-160c20 -1 41 -3 61 -6v-66c-90 -11 -182 -11 -273 0v66c20 3 41 5 62 6v160c-63 3 -81 -34 -94 -86c-12 -50 -25 -107 -76 -137c-35 -19 -100 -15 -142 -10v66c45 0 68 62 79 101c15 50 31 105 93 114
v2c-42 13 -62 44 -77 82c-14 34 -26 100 -85 91l-7 66c30 7 58 11 83 10c75 -1 108 -46 130 -110c20 -55 33 -104 96 -102z" />
    <glyph glyph-name="afii10073" unicode="&#x437;" horiz-adv-x="478" 
d="M131 357h-84c-4 51 -4 96 0 145c41 20 92 39 178 39c119 0 212 -45 212 -148c0 -36 -23 -84 -74 -105v-1c53 -18 95 -57 95 -126c0 -119 -100 -166 -221 -166c-105 0 -209 47 -206 171c45 5 90 4 135 -1c3 -44 24 -79 75 -78c47 1 62 39 62 73c0 74 -49 81 -115 77v80
c47 -4 93 8 93 61c0 33 -23 62 -66 62c-46 0 -75 -25 -84 -83z" />
    <glyph glyph-name="afii10074" unicode="&#x438;" 
d="M114 530c61 3 123 0 182 -7v-66c-20 -3 -40 -5 -61 -6v-270c0 -59 24 -84 63 -83c46 1 79 31 105 64v289c-20 1 -41 3 -61 6v66c91 11 185 11 276 0v-66c-20 -3 -41 -5 -61 -6v-368c20 -3 45 -9 61 -14v-66c-53 -7 -120 -6 -187 -4l-15 69c-56 -57 -115 -85 -198 -80
c-52 3 -84 23 -104 49c-29 39 -32 91 -32 127v287c-21 1 -42 3 -62 6v66c31 4 63 6 94 7z" />
    <glyph glyph-name="afii10075" unicode="&#x439;" 
d="M490 603c-111 -14 -230 -14 -342 0v93c109 13 233 13 342 0v-93zM404 162l-1 289c-20 1 -41 3 -61 6v66c91 11 185 11 276 0v-66c-20 -3 -41 -5 -61 -6v-368c21 -3 45 -9 61 -14v-66c-53 -7 -120 -6 -187 -4l-14 69c-57 -57 -116 -85 -199 -80c-127 7 -136 116 -136 176
v287c-21 1 -42 3 -62 6v66c91 11 186 11 277 0v-66c-21 -3 -41 -5 -62 -6v-270c0 -59 24 -84 63 -83c46 1 79 31 106 64z" />
    <glyph glyph-name="afii10076" unicode="&#x43a;" horiz-adv-x="614" 
d="M255 322c63 -2 84 29 101 73c28 74 44 139 140 140c26 1 54 -4 85 -11l-7 -66c-59 9 -61 -58 -74 -92c-15 -38 -38 -68 -80 -81v-2c62 -9 80 -66 95 -116c11 -39 34 -101 79 -101v-66c-22 -3 -49 -5 -76 -4c-87 3 -120 58 -147 134c-21 57 -37 109 -116 105v-160
c21 -1 41 -3 62 -6v-66c-92 -11 -185 -11 -277 0v66c21 3 41 5 62 6v368c-24 2 -38 4 -62 7v66c71 16 142 19 215 17v-211z" />
    <glyph glyph-name="afii10077" unicode="&#x43b;" horiz-adv-x="629" 
d="M358 533c69 -1 187 -9 231 -16v-66c-23 -3 -38 -5 -61 -7v-369c20 -1 41 -3 61 -5v-67c-91 -10 -185 -10 -276 0v67c20 2 41 4 61 5v362c-52 2 -93 -12 -111 -63c-22 -67 -17 -143 -28 -212c-13 -84 -49 -162 -164 -163c-20 0 -42 1 -61 4v66c46 4 63 36 70 71
c16 75 14 153 29 228c33 163 165 165 249 165z" />
    <glyph glyph-name="afii10078" unicode="&#x43c;" horiz-adv-x="827" 
d="M40 459v67c40 5 80 6 120 6c26 0 101 -1 139 -5l116 -413l115 413c37 5 104 5 130 5c43 0 85 -1 127 -6v-67c-23 -2 -47 -5 -70 -7v-374c23 -1 47 -4 70 -8v-66c-73 -8 -153 -6 -224 0v342h-1c-4 -19 -10 -38 -14 -56l-77 -289c-51 -4 -108 -4 -159 0l-79 288
c-5 19 -11 38 -16 57h-1v-342c-54 -5 -112 -6 -167 0v66c20 4 41 6 61 6v376c-24 2 -47 5 -70 7z" />
    <glyph glyph-name="afii10079" unicode="&#x43d;" horiz-adv-x="666" 
d="M412 451c-19 4 -39 2 -62 6v66c89 13 181 10 276 0v-66c-20 -3 -40 -5 -61 -6v-374c21 -2 41 -4 61 -6v-66c-86 -11 -175 -13 -276 0v66c20 3 41 5 62 6v156h-157v-156c20 -2 41 -4 61 -6v-66c-91 -11 -185 -11 -276 0v66c20 2 41 4 61 6v374c-20 1 -41 3 -61 6v66
c91 11 185 11 276 0v-66c-20 -3 -41 -5 -61 -6v-120h157v120z" />
    <glyph glyph-name="afii10080" unicode="&#x43e;" horiz-adv-x="585" 
d="M555 264c0 -161 -84 -274 -262 -274c-179 0 -263 114 -263 274c0 161 80 277 263 277c182 0 262 -115 262 -277zM400 265c0 65 -6 176 -107 176c-102 0 -108 -114 -108 -176c0 -63 5 -175 108 -175c102 0 107 111 107 175z" />
    <glyph glyph-name="afii10081" unicode="&#x43f;" horiz-adv-x="671" 
d="M40 5v66c20 2 41 4 61 6v362c-23 2 -43 5 -61 7v67c65 15 120 23 187 21c6 -23 11 -47 15 -72c51 50 126 82 198 78c127 -8 149 -109 149 -219v-244c21 -2 41 -4 62 -6v-66c-91 -11 -186 -11 -277 0v66c21 2 41 4 62 6v221c0 58 6 131 -72 130c-46 0 -83 -32 -109 -65
v-286c20 -2 41 -4 61 -6v-66c-91 -11 -185 -11 -276 0z" />
    <glyph glyph-name="afii10082" unicode="&#x440;" horiz-adv-x="626" 
d="M255 368v-163c14 -42 44 -90 96 -90c78 0 89 98 89 161c0 59 -6 158 -90 158c-43 0 -73 -34 -95 -66zM40 -171v67c21 2 41 4 62 5v537c-24 2 -38 5 -62 7v67c65 16 120 23 187 22c7 -25 11 -49 15 -74c40 49 95 85 166 85c154 0 188 -143 188 -276
c0 -123 -40 -260 -192 -269c-62 0 -121 28 -149 77v-176c21 -1 41 -3 62 -5v-67c-91 -11 -186 -11 -277 0z" />
    <glyph glyph-name="afii10083" unicode="&#x441;" horiz-adv-x="532" 
d="M30 265c0 181 89 276 258 276c85 0 151 -27 199 -69c5 -50 5 -94 2 -149c-46 -4 -77 -4 -122 0c-1 90 -27 119 -84 120c-85 2 -97 -110 -97 -178s11 -180 97 -178c49 2 74 50 74 112c45 4 98 3 144 0c2 -130 -88 -209 -221 -209c-169 0 -250 95 -250 275z" />
    <glyph glyph-name="afii10084" unicode="&#x442;" horiz-adv-x="984" 
d="M40 5v66c20 2 41 4 61 6v362c-22 2 -43 5 -61 7v67c65 15 120 23 187 21c6 -23 11 -47 15 -72c51 50 116 82 188 78c74 -5 112 -36 131 -82c59 57 124 86 192 82c128 -8 149 -92 149 -203v-260c21 -2 42 -4 62 -6v-66c-91 -11 -185 -11 -276 0v66c20 2 41 4 61 6v244
c0 59 -8 108 -63 107c-48 -2 -93 -49 -107 -64v-287c20 -2 41 -4 61 -6v-66c-91 -11 -185 -11 -276 0v66c20 2 41 4 61 6v244c0 59 -8 108 -63 107c-46 -2 -81 -32 -107 -65v-286c20 -2 41 -4 61 -6v-66c-91 -11 -185 -11 -276 0z" />
    <glyph glyph-name="afii10085" unicode="&#x443;" horiz-adv-x="566" 
d="M305 195h3c2 16 9 40 13 52l67 206c-21 2 -36 3 -56 6v66c91 11 133 11 224 0v-66c-21 -3 -38 -4 -59 -6l-169 -520c-24 -72 -71 -108 -150 -110c-45 -1 -91 9 -124 33c-5 42 -5 72 1 110h63c12 -23 30 -35 55 -34c22 0 51 8 60 51l-173 470c-20 2 -30 2 -50 4v66
c91 11 183 13 274 2v-66c-20 -3 -41 -4 -61 -6l69 -205c5 -13 10 -38 13 -53z" />
    <glyph glyph-name="afii10086" unicode="&#x444;" horiz-adv-x="842" 
d="M283 -171v67c20 2 41 4 62 5v140c-34 -33 -76 -40 -127 -41c-154 -1 -186 154 -187 278c-1 123 31 260 179 261c51 0 97 -18 135 -51v133c-24 2 -38 4 -62 7v67c64 9 148 15 215 9v-216c37 33 83 51 134 51c149 -1 180 -138 179 -261c0 -124 -32 -279 -187 -278
c-50 1 -92 8 -126 41v-140c21 -1 41 -3 62 -5v-67c-91 -11 -186 -11 -277 0zM498 150c16 -28 40 -50 72 -50c58 -1 78 56 84 113c5 41 7 107 -5 151c-11 44 -35 66 -77 66c-31 -1 -55 -19 -74 -41v-239zM345 389c-19 22 -43 40 -74 41c-43 0 -67 -22 -78 -66
s-10 -110 -5 -151c7 -57 27 -114 84 -113c33 0 57 23 73 51v238z" />
    <glyph glyph-name="afii10087" unicode="&#x445;" horiz-adv-x="616" 
d="M223 77c21 -1 41 -3 62 -6v-66c-91 -11 -179 -11 -270 0v66c20 3 34 5 55 6l161 193l-152 181c-20 2 -35 4 -55 6v66c91 11 179 11 270 0v-66c-20 -2 -41 -4 -61 -6l75 -89l75 89c-21 2 -41 4 -62 6v66c91 11 177 11 268 0v-66c-20 -2 -32 -4 -53 -6l-151 -181l163 -193
c20 -1 32 -3 53 -6v-66c-91 -11 -177 -11 -268 0v66c20 3 41 5 61 6l-86 102z" />
    <glyph glyph-name="afii10088" unicode="&#x446;" horiz-adv-x="688" 
d="M40 524c91 11 185 11 276 0v-66c-20 -2 -41 -4 -61 -6v-365h157v365c-21 2 -42 4 -62 6v66c91 11 185 11 276 0v-66c-20 -2 -41 -4 -61 -6v-365h87c3 -82 -6 -137 -25 -217h-79c-5 43 -9 86 -10 130h-103h-265c-46 0 -84 1 -130 7v66c23 3 38 5 61 7v372
c-20 2 -41 4 -61 6v66z" />
    <glyph glyph-name="afii10089" unicode="&#x447;" horiz-adv-x="619" 
d="M365 76v109h-99c-129 0 -202 56 -202 188v78c-21 2 -34 4 -54 6v66c91 11 168 11 259 0v-66c-20 -2 -31 -4 -52 -6v-105c0 -32 26 -63 58 -63h90v168c-21 2 -35 4 -55 6v66c91 11 178 11 269 0v-66c-20 -2 -41 -4 -61 -6v-375c20 -2 41 -4 61 -6v-66
c-91 -11 -185 -11 -276 0v66c20 2 41 4 62 6z" />
    <glyph glyph-name="afii10090" unicode="&#x448;" horiz-adv-x="977" 
d="M171 0c-47 0 -84 1 -131 7v66c22 4 38 5 62 7v372c-21 2 -41 4 -62 6v66c91 11 186 11 277 0v-66c-21 -2 -41 -4 -62 -6v-365h157v365c-21 2 -41 4 -62 6v66c91 11 183 10 277 0v-66c-21 -2 -41 -4 -62 -6v-365h157v365c-21 2 -41 4 -61 6v66c91 11 185 11 276 0v-66
c-20 -2 -41 -4 -62 -6v-372c24 -2 39 -4 62 -7v-66c-46 -6 -84 -7 -130 -7h-636z" />
    <glyph glyph-name="afii10091" unicode="&#x449;" horiz-adv-x="978" 
d="M40 524c91 11 185 11 276 0v-66c-20 -2 -41 -4 -61 -6v-365h157v365c-21 2 -42 4 -62 6v66c91 11 185 11 276 0v-66c-20 -2 -40 -4 -61 -6v-365h157v365c-21 2 -41 4 -62 6v66c91 11 186 11 277 0v-66c-21 -2 -41 -4 -62 -6v-365h67c2 -82 -6 -137 -26 -217h-78
c-5 43 -9 86 -11 130h-657c-46 0 -84 1 -130 7v66c23 3 38 5 61 7v372c-20 2 -41 4 -61 6v66z" />
    <glyph glyph-name="afii10092" unicode="&#x44a;" horiz-adv-x="605" 
d="M103 3v67c20 2 41 4 61 5v355h-58c-1 -28 -4 -54 -10 -83h-67c-9 61 -10 110 -8 181h228c43 0 87 -2 130 -7v-66c-23 -3 -38 -6 -61 -8v-135h78c97 0 199 -41 199 -156c0 -103 -92 -156 -204 -156h-154c-46 0 -95 -2 -134 3zM318 233v-148h36c41 0 86 19 86 71
s-42 77 -84 77h-38z" />
    <glyph glyph-name="afii10093" unicode="&#x44b;" horiz-adv-x="835" 
d="M40 3v67c20 2 41 4 62 5v377c-21 2 -42 4 -62 6v66c91 11 185 11 276 0v-66c-20 -2 -41 -4 -61 -6v-140h78c98 0 199 -41 199 -156c0 -103 -92 -156 -204 -156h-154c-45 0 -93 0 -134 3zM255 233v-148h36c41 0 86 19 86 71s-42 77 -84 77h-38zM580 77v374
c-20 1 -41 3 -61 6v66c91 11 185 11 276 0v-66c-20 -3 -41 -5 -61 -6v-374c20 -2 41 -4 61 -6v-66c-91 -11 -185 -11 -276 0v66c20 2 41 4 61 6z" />
    <glyph glyph-name="afii10094" unicode="&#x44c;" horiz-adv-x="542" 
d="M40 3v67c20 2 41 4 62 5v377c-21 2 -42 4 -62 6v66c91 11 185 11 276 0v-66c-20 -2 -41 -4 -61 -6v-140h78c98 0 199 -41 199 -156c0 -103 -92 -156 -204 -156h-154c-45 0 -93 0 -134 3zM255 233v-148h36c41 0 86 19 86 71s-42 77 -84 77h-38z" />
    <glyph glyph-name="afii10095" unicode="&#x44d;" horiz-adv-x="532" 
d="M344 223h-137v98h136c-7 61 -28 123 -92 122c-47 0 -90 -32 -96 -108c-37 -3 -73 -2 -109 0c-3 49 -3 90 2 137c44 45 128 69 196 69c169 0 258 -95 258 -276c0 -180 -82 -275 -251 -275c-132 0 -223 79 -220 209c45 3 98 4 143 0c1 -62 25 -111 75 -112
c69 -2 90 72 95 136z" />
    <glyph glyph-name="afii10096" unicode="&#x44e;" horiz-adv-x="860" 
d="M829 264c1 -162 -86 -274 -257 -274s-242 95 -254 234h-72v-147c21 -2 41 -4 62 -6v-66c-91 -11 -177 -11 -268 0v66c20 2 41 4 62 6v374c-21 1 -42 3 -62 6v66c91 11 177 11 268 0v-66c-21 -3 -41 -5 -62 -6v-129h74c16 130 81 218 252 218c172 0 257 -114 257 -276z
M674 265c0 64 0 175 -102 175s-100 -113 -101 -176c0 -63 -1 -174 101 -174s102 111 102 175z" />
    <glyph glyph-name="afii10097" unicode="&#x44f;" horiz-adv-x="606" 
d="M351 303v147h-30c-43 0 -91 -12 -91 -67c0 -72 59 -82 121 -80zM566 521v-66c-21 -4 -38 -5 -62 -8v-372c21 -1 41 -3 62 -5v-67c-92 -10 -185 -10 -277 0v67c21 2 41 4 62 5v141c-142 7 -92 -146 -192 -203c-35 -20 -106 -16 -149 -10v66c52 9 68 24 79 63
c15 50 35 123 97 132v2c-83 11 -119 68 -116 127c6 123 130 135 221 135h180c29 0 70 -3 95 -7z" />
    </font>
</defs>
</svg>
